<?xml version="1.0" encoding="utf-8" standalone="no"?>
<!DOCTYPE svg PUBLIC "-//W3C//DTD SVG 1.1//EN"
  "http://www.w3.org/Graphics/SVG/1.1/DTD/svg11.dtd">
<!-- Created with matplotlib (http://matplotlib.org/) -->
<svg height="360pt" version="1.1" viewBox="0 0 288 360" width="288pt" xmlns="http://www.w3.org/2000/svg" xmlns:xlink="http://www.w3.org/1999/xlink">
 <defs>
  <style type="text/css">
*{stroke-linecap:butt;stroke-linejoin:round;}
  </style>
 </defs>
 <g id="figure_1">
  <g id="patch_1">
   <path d="M 0 360 
L 288 360 
L 288 0 
L 0 0 
z
" style="fill:#ffffff;"/>
  </g>
  <g id="axes_1">
   <g id="patch_2">
    <path d="M 86.4 316.8 
L 275.94 316.8 
L 275.94 39.864739 
L 86.4 39.864739 
z
" style="fill:#ffffff;"/>
   </g>
   <g id="patch_3">
    <path clip-path="url(#pd5b6c50118)" d="M 86.4 288.277899 
L 111.141076 288.277899 
L 111.141076 275.530591 
L 86.4 275.530591 
z
" style="fill:#08519c;opacity:0.6;"/>
   </g>
   <g id="patch_4">
    <path clip-path="url(#pd5b6c50118)" d="M 86.4 232.508427 
L 86.4 232.508427 
L 86.4 219.76112 
L 86.4 219.76112 
z
" style="fill:#08519c;opacity:0.6;"/>
   </g>
   <g id="patch_5">
    <path clip-path="url(#pd5b6c50118)" d="M 86.4 176.738956 
L 166.888134 176.738956 
L 166.888134 163.991648 
L 86.4 163.991648 
z
" style="fill:#08519c;opacity:0.6;"/>
   </g>
   <g id="patch_6">
    <path clip-path="url(#pd5b6c50118)" d="M 86.4 120.969485 
L 266.914286 120.969485 
L 266.914286 108.222177 
L 86.4 108.222177 
z
" style="fill:#08519c;opacity:0.6;"/>
   </g>
   <g id="patch_7">
    <path clip-path="url(#pd5b6c50118)" d="M 86.4 65.200013 
L 217.007395 65.200013 
L 217.007395 52.452705 
L 86.4 52.452705 
z
" style="fill:#08519c;opacity:0.6;"/>
   </g>
   <g id="patch_8">
    <path clip-path="url(#pd5b6c50118)" d="M 86.4 304.212034 
L 107.636975 304.212034 
L 107.636975 291.464726 
L 86.4 291.464726 
z
" style="fill:#cb181d;opacity:0.6;"/>
   </g>
   <g id="patch_9">
    <path clip-path="url(#pd5b6c50118)" d="M 86.4 248.442562 
L 224.440336 248.442562 
L 224.440336 235.695254 
L 86.4 235.695254 
z
" style="fill:#cb181d;opacity:0.6;"/>
   </g>
   <g id="patch_10">
    <path clip-path="url(#pd5b6c50118)" d="M 86.4 192.673091 
L 135.032672 192.673091 
L 135.032672 179.925783 
L 86.4 179.925783 
z
" style="fill:#cb181d;opacity:0.6;"/>
   </g>
   <g id="patch_11">
    <path clip-path="url(#pd5b6c50118)" d="M 86.4 136.903619 
L 150.110924 136.903619 
L 150.110924 124.156311 
L 86.4 124.156311 
z
" style="fill:#cb181d;opacity:0.6;"/>
   </g>
   <g id="patch_12">
    <path clip-path="url(#pd5b6c50118)" d="M 86.4 81.134148 
L 158.07479 81.134148 
L 158.07479 68.38684 
L 86.4 68.38684 
z
" style="fill:#cb181d;opacity:0.6;"/>
   </g>
   <g id="matplotlib.axis_1">
    <g id="text_1">
     <!-- (less is better) -->
     <defs>
      <path d="M 25.203125 74.5 
C 19.796875 69.015625 7.40625 56.265625 7.40625 24.8125 
C 7.40625 -6.765625 19.796875 -19.421875 25.203125 -25 
L 31.296875 -25 
C 19 -12.25 15 5.578125 15 24.703125 
C 15 43.71875 18.796875 61.65625 31.296875 74.5 
z
" id="CMSS17-40"/>
      <path d="M 14.796875 69 
L 7.40625 69 
L 7.40625 0 
L 14.796875 0 
z
" id="CMSS17-108"/>
      <path d="M 39.09375 21.515625 
C 39.09375 24.84375 38.90625 31.296875 35.703125 36.640625 
C 32.203125 42.390625 26.5 44 22.203125 44 
C 11.796875 44 3 34.1875 3 21.484375 
C 3 9.09375 12.09375 -1 23.59375 -1 
C 28.09375 -1 33.59375 0.296875 38.59375 3.875 
C 38.59375 4.28125 38.40625 6.46875 38.296875 6.5625 
C 38.296875 6.765625 38 9.84375 38 10.25 
C 33.203125 6.359375 27.703125 5.078125 23.703125 5.078125 
C 17.296875 5.078125 10.40625 10.421875 10.09375 21.515625 
z
M 10.90625 27 
C 12.203125 32.5625 16.59375 37.828125 22.203125 37.828125 
C 23.703125 37.828125 30.703125 37.828125 32.5 27 
z
" id="CMSS17-101"/>
      <path d="M 32.203125 41.046875 
C 26.296875 43.859375 21.703125 43.859375 18.703125 43.859375 
C 11.59375 43.859375 3.09375 41.375 3.09375 31.296875 
C 3.09375 21.234375 14.09375 19.03125 17.09375 18.421875 
C 21.703125 17.53125 26.796875 16.53125 26.796875 11.5625 
C 26.796875 5.265625 19.59375 5.265625 18.296875 5.265625 
C 14.296875 5.265625 8.796875 6.359375 3.796875 9.96875 
L 2.59375 3.28125 
C 8.296875 0 13.796875 -1 18.40625 -1 
C 30.703125 -1 33.796875 6.5 33.796875 12.203125 
C 33.796875 17.09375 31 20.390625 29.09375 21.890625 
C 25.796875 24.5 24.59375 24.796875 16.40625 26.5 
C 15 26.703125 10.09375 27.796875 10.09375 32.28125 
C 10.09375 38 16.40625 38 17.796875 38 
C 24.296875 38 28.296875 35.984375 31 34.5 
z
" id="CMSS17-115"/>
      <path d="M 15.296875 65.359375 
L 6.90625 65.359375 
L 6.90625 57 
L 15.296875 57 
z
M 14.796875 42.796875 
L 7.40625 42.796875 
L 7.40625 0 
L 14.796875 0 
z
" id="CMSS17-105"/>
      <path d="M 14.90625 69 
L 7.5 69 
L 7.5 -0.203125 
L 15.09375 -0.203125 
L 15.09375 4.28125 
C 18.90625 0.59375 23.5 -1 27.59375 -1 
C 37.203125 -1 45 8.578125 45 21.125 
C 45 32.59375 39 43.0625 30.09375 43.0625 
C 23.796875 43.0625 18.203125 40.484375 14.90625 37.796875 
z
M 15.09375 31.96875 
C 17.296875 34.71875 20.40625 37 24.796875 37 
C 30.703125 37 37.40625 32.765625 37.40625 21.125 
C 37.40625 8.71875 29.40625 5.078125 23.90625 5.078125 
C 21.90625 5.078125 19.796875 5.5625 17.796875 7.25 
C 15.09375 9.609375 15.09375 11.078125 15.09375 12.453125 
z
" id="CMSS17-98"/>
      <path d="M 16.703125 37 
L 29.703125 37 
L 29.703125 42.765625 
L 16.703125 42.765625 
L 16.703125 55 
L 9.59375 55 
L 9.59375 42.765625 
L 1.703125 42.765625 
L 1.703125 37 
L 9.40625 37 
L 9.40625 11.703125 
C 9.40625 6 10.703125 -1 17.296875 -1 
C 22.296875 -1 26.90625 0.390625 31.296875 2.6875 
L 29.703125 8.5625 
C 27.296875 6.46875 24.40625 5.265625 21.296875 5.265625 
C 16.90625 5.265625 16.703125 10.875 16.703125 13.375 
z
" id="CMSS17-116"/>
      <path d="M 14.90625 21.296875 
C 14.90625 30.703125 21.796875 37 30.59375 37 
L 30.59375 43.578125 
C 24.203125 43.578125 18.203125 40.390625 14.59375 35.203125 
L 14.59375 43.09375 
L 7.5 43.09375 
L 7.5 0 
L 14.90625 0 
z
" id="CMSS17-114"/>
      <path d="M 11.296875 -25 
C 16.703125 -19.515625 29.09375 -6.765625 29.09375 24.703125 
C 29.09375 56.265625 16.703125 68.921875 11.296875 74.5 
L 5.203125 74.5 
C 17.5 61.75 21.5 43.921875 21.5 24.8125 
C 21.5 5.78125 17.703125 -12.15625 5.203125 -25 
z
" id="CMSS17-41"/>
     </defs>
     <g transform="translate(146.045864 329.766376)scale(0.12 -0.12)">
      <use transform="scale(0.996264)" xlink:href="#CMSS17-40"/>
      <use transform="translate(36.433914 0)scale(0.996264)" xlink:href="#CMSS17-108"/>
      <use transform="translate(58.614637 0)scale(0.996264)" xlink:href="#CMSS17-101"/>
      <use transform="translate(100.253459 0)scale(0.996264)" xlink:href="#CMSS17-115"/>
      <use transform="translate(136.167001 0)scale(0.996264)" xlink:href="#CMSS17-115"/>
      <use transform="translate(203.309656 0)scale(0.996264)" xlink:href="#CMSS17-105"/>
      <use transform="translate(225.490379 0)scale(0.996264)" xlink:href="#CMSS17-115"/>
      <use transform="translate(292.633034 0)scale(0.996264)" xlink:href="#CMSS17-98"/>
      <use transform="translate(343.440416 0)scale(0.996264)" xlink:href="#CMSS17-101"/>
      <use transform="translate(385.079238 0)scale(0.996264)" xlink:href="#CMSS17-116"/>
      <use transform="translate(418.910804 0)scale(0.996264)" xlink:href="#CMSS17-116"/>
      <use transform="translate(452.742371 0)scale(0.996264)" xlink:href="#CMSS17-101"/>
      <use transform="translate(494.381193 0)scale(0.996264)" xlink:href="#CMSS17-114"/>
      <use transform="translate(526.290966 0)scale(0.996264)" xlink:href="#CMSS17-41"/>
     </g>
    </g>
   </g>
   <g id="matplotlib.axis_2"/>
   <g id="patch_13">
    <path d="M 86.4 316.8 
L 86.4 39.864739 
" style="fill:none;stroke:#808080;stroke-linecap:square;stroke-linejoin:miter;stroke-width:0.8;"/>
   </g>
   <g id="text_2">
    <!-- 2.3 -->
    <defs>
     <path d="M 25.796875 21.203125 
C 28.59375 24.078125 32.796875 27.5625 35.703125 31.046875 
C 38.5 34.4375 42.203125 39.234375 42.203125 46.203125 
C 42.203125 57.140625 34.796875 67 22.203125 67 
C 12.296875 67 6.59375 60.828125 3.90625 51.15625 
L 7.796875 45.765625 
C 10 54.84375 13.09375 60.625 20.90625 60.625 
C 29.5 60.625 34.296875 53.640625 34.296875 45.96875 
C 34.296875 36.796875 27.296875 29.703125 22 24.421875 
C 16.09375 18.546875 10.296875 12.5625 4.703125 6.375 
L 4.703125 0 
L 42.203125 0 
L 42.203125 6.765625 
L 25.203125 6.765625 
C 24 6.765625 22.796875 6.765625 21.59375 6.765625 
L 11.59375 6.765625 
L 11.59375 6.859375 
z
" id="CMSS17-50"/>
     <path d="M 17 7.96875 
L 9 7.96875 
L 9 0 
L 17 0 
z
" id="CMSS17-46"/>
     <path d="M 15.703125 31.640625 
L 22.5 31.640625 
C 31.90625 31.640625 34.59375 23.546875 34.59375 17.90625 
C 34.59375 10.203125 30.203125 4.171875 23 4.171875 
C 17.40625 4.171875 9.5 6.9375 5 14.25 
C 4.296875 10.796875 4.296875 10.59375 3.90625 8.21875 
C 8.59375 1.375 16.203125 -2 23.203125 -2 
C 34.59375 -2 43 7.390625 43 17.78125 
C 43 25.59375 37.5 32.140625 30 34.609375 
C 36 37.875 40.40625 44 40.40625 51.140625 
C 40.40625 59.453125 32.703125 66.078125 23.296875 66.078125 
C 14.703125 66.078125 8 60.8125 5.203125 55.15625 
C 5.90625 54.1875 7.703125 51.3125 8.59375 49.828125 
C 10.796875 55.65625 16.5 60 23.203125 60 
C 28.796875 60 32.5 56.359375 32.5 51.109375 
C 32.5 45.671875 29 39.734375 23.09375 38.359375 
C 22.703125 38.359375 16.5 37.765625 15.703125 37.671875 
z
" id="CMSS17-51"/>
    </defs>
    <g style="fill:#ffffff;" transform="translate(97.349148 284.394905)scale(0.1 -0.1)">
     <use transform="scale(0.996264)" xlink:href="#CMSS17-50"/>
     <use transform="translate(46.843624 0)scale(0.996264)" xlink:href="#CMSS17-46"/>
     <use transform="translate(72.867828 0)scale(0.996264)" xlink:href="#CMSS17-51"/>
    </g>
   </g>
   <g id="text_3">
    <!-- 7.6 -->
    <defs>
     <path d="M 21.703125 59 
C 22.90625 59 24.09375 59 25.296875 59 
L 36.796875 59 
C 22.5 42.359375 14.296875 21.328125 14.296875 -0.5 
L 22.296875 -0.5 
C 22.296875 20.671875 29.296875 42.125 43 59.296875 
L 43 65.765625 
L 3.90625 65.765625 
L 3.90625 59 
z
" id="CMSS17-55"/>
     <path d="M 39 64.078125 
C 34.796875 65.78125 31.796875 66.078125 29 66.078125 
C 16 66.078125 3.90625 52.625 3.90625 31.34375 
C 3.90625 4.140625 15.40625 -2 23.59375 -2 
C 28.09375 -2 32.59375 -0.609375 36.90625 4.375 
C 41.296875 9.640625 43 14.03125 43 21.703125 
C 43 34.046875 36.90625 45 27.796875 45 
C 21.203125 45 15.5 41.515625 12 37.125 
C 13 50.90625 19.59375 60 29.09375 60 
C 31.703125 60 35.09375 59.625 39 57.96875 
z
M 12.09375 21.390625 
C 12.09375 22.1875 12.09375 22.6875 12.203125 24.1875 
C 12.203125 31.953125 16.703125 38.921875 24 38.921875 
C 28.703125 38.921875 31.09375 36.4375 32.90625 33.359375 
C 35 29.46875 35.09375 25.78125 35.09375 21.6875 
C 35.09375 17.8125 35.09375 13.921875 32.796875 9.953125 
C 30.90625 6.859375 28.40625 4.171875 23.59375 4.171875 
C 14.09375 4.171875 12.5 17.40625 12.09375 21.390625 
z
" id="CMSS17-54"/>
    </defs>
    <g style="fill:#ffffff;" transform="translate(153.096207 172.855962)scale(0.1 -0.1)">
     <use transform="scale(0.996264)" xlink:href="#CMSS17-55"/>
     <use transform="translate(46.843624 0)scale(0.996264)" xlink:href="#CMSS17-46"/>
     <use transform="translate(72.867828 0)scale(0.996264)" xlink:href="#CMSS17-54"/>
    </g>
   </g>
   <g id="text_4">
    <!-- 17.0 -->
    <defs>
     <path d="M 28.40625 67 
L 26.5 67 
C 21.09375 61.5625 14.796875 60.78125 8.40625 60.78125 
L 8.40625 55 
C 11.296875 55 16 55 20.703125 57.296875 
L 20.703125 5.765625 
L 8.90625 5.765625 
L 8.90625 0 
L 40.203125 0 
L 40.203125 5.765625 
L 28.40625 5.765625 
z
" id="CMSS17-49"/>
     <path d="M 43.09375 31.9375 
C 43.09375 37.578125 43 48.078125 38.90625 56.1875 
C 34.796875 64 28.203125 66.078125 23.5 66.078125 
C 16.703125 66.078125 10.90625 62.109375 7.90625 55.78125 
C 4.703125 49.15625 3.796875 42.328125 3.796875 31.9375 
C 3.796875 24.828125 4.09375 16.109375 7.703125 8.484375 
C 11.796875 0.078125 18.703125 -2 23.40625 -2 
C 29.59375 -2 35.59375 1.265625 39 8.09375 
C 42.5 15.21875 43.09375 23.03125 43.09375 31.9375 
z
M 23.40625 4.078125 
C 15.796875 4.078125 13.5 12.671875 12.796875 15.546875 
C 11.59375 20.46875 11.40625 25.21875 11.40625 33.03125 
C 11.40625 39.15625 11.40625 46.0625 13.296875 51.515625 
C 15.59375 57.828125 19.59375 60 23.40625 60 
C 30.796875 60 33.203125 52.6875 34 50.125 
C 35.5 44.890625 35.5 38.765625 35.5 33.03125 
C 35.5 23.84375 35.5 4.078125 23.40625 4.078125 
z
" id="CMSS17-48"/>
    </defs>
    <g style="fill:#ffffff;" transform="translate(248.141023 117.086491)scale(0.1 -0.1)">
     <use transform="scale(0.996264)" xlink:href="#CMSS17-49"/>
     <use transform="translate(46.843624 0)scale(0.996264)" xlink:href="#CMSS17-55"/>
     <use transform="translate(93.687247 0)scale(0.996264)" xlink:href="#CMSS17-46"/>
     <use transform="translate(119.711452 0)scale(0.996264)" xlink:href="#CMSS17-48"/>
    </g>
   </g>
   <g id="text_5">
    <!-- 12.3 -->
    <g style="fill:#ffffff;" transform="translate(198.234132 61.317019)scale(0.1 -0.1)">
     <use transform="scale(0.996264)" xlink:href="#CMSS17-49"/>
     <use transform="translate(46.843624 0)scale(0.996264)" xlink:href="#CMSS17-50"/>
     <use transform="translate(93.687247 0)scale(0.996264)" xlink:href="#CMSS17-46"/>
     <use transform="translate(119.711452 0)scale(0.996264)" xlink:href="#CMSS17-51"/>
    </g>
   </g>
   <g id="text_6">
    <!-- 2.0 -->
    <g style="fill:#ffffff;" transform="translate(93.845047 300.32904)scale(0.1 -0.1)">
     <use transform="scale(0.996264)" xlink:href="#CMSS17-50"/>
     <use transform="translate(46.843624 0)scale(0.996264)" xlink:href="#CMSS17-46"/>
     <use transform="translate(72.867828 0)scale(0.996264)" xlink:href="#CMSS17-48"/>
    </g>
   </g>
   <g id="text_7">
    <!-- 13.0 -->
    <g style="fill:#ffffff;" transform="translate(205.667073 244.559568)scale(0.1 -0.1)">
     <use transform="scale(0.996264)" xlink:href="#CMSS17-49"/>
     <use transform="translate(46.843624 0)scale(0.996264)" xlink:href="#CMSS17-51"/>
     <use transform="translate(93.687247 0)scale(0.996264)" xlink:href="#CMSS17-46"/>
     <use transform="translate(119.711452 0)scale(0.996264)" xlink:href="#CMSS17-48"/>
    </g>
   </g>
   <g id="text_8">
    <!-- 4.6 -->
    <defs>
     <path d="M 35.203125 17 
L 44.296875 17 
L 44.296875 23.078125 
L 35.203125 23.078125 
L 35.203125 65.5 
L 26.40625 65.5 
L 2.59375 23.078125 
L 2.59375 17 
L 27.296875 17 
L 27.296875 0 
L 35.203125 0 
z
M 10.296875 23.078125 
C 16.09375 33.234375 27.59375 53.734375 27.59375 60.703125 
L 27.59375 23.078125 
z
" id="CMSS17-52"/>
    </defs>
    <g style="fill:#ffffff;" transform="translate(121.240745 188.790097)scale(0.1 -0.1)">
     <use transform="scale(0.996264)" xlink:href="#CMSS17-52"/>
     <use transform="translate(46.843624 0)scale(0.996264)" xlink:href="#CMSS17-46"/>
     <use transform="translate(72.867828 0)scale(0.996264)" xlink:href="#CMSS17-54"/>
    </g>
   </g>
   <g id="text_9">
    <!-- 6.0 -->
    <g style="fill:#ffffff;" transform="translate(136.318997 133.020625)scale(0.1 -0.1)">
     <use transform="scale(0.996264)" xlink:href="#CMSS17-54"/>
     <use transform="translate(46.843624 0)scale(0.996264)" xlink:href="#CMSS17-46"/>
     <use transform="translate(72.867828 0)scale(0.996264)" xlink:href="#CMSS17-48"/>
    </g>
   </g>
   <g id="text_10">
    <!-- 6.8 -->
    <defs>
     <path d="M 30.203125 34.71875 
C 37.796875 37.1875 41.703125 43.125 41.703125 48.96875 
C 41.703125 58.15625 33.703125 66.078125 23.5 66.078125 
C 12.90625 66.078125 5.203125 57.9375 5.203125 49.125 
C 5.203125 43.4375 9 37.546875 16.703125 35.015625 
C 6.90625 31.203125 3.90625 23.625 3.90625 17.953125 
C 3.90625 6.96875 12.796875 -2 23.40625 -2 
C 34.40625 -2 43 7.109375 43 17.78125 
C 43 24.328125 39.09375 31.25 30.203125 34.71875 
z
M 23.5 38 
C 16.796875 38 12.296875 42.375 12.296875 49 
C 12.296875 55.71875 16.796875 60 23.5 60 
C 29.703125 60 34.59375 56.109375 34.59375 49 
C 34.59375 41.984375 29.796875 38 23.5 38 
z
M 23.5 4.171875 
C 17.796875 4.171875 11.703125 8.078125 11.703125 18.0625 
C 11.703125 28.328125 18.5 31.921875 23.40625 31.921875 
C 28.796875 31.921875 35.203125 28.125 35.203125 18.0625 
C 35.203125 7.671875 28.59375 4.171875 23.5 4.171875 
z
" id="CMSS17-56"/>
    </defs>
    <g style="fill:#ffffff;" transform="translate(144.282862 77.251154)scale(0.1 -0.1)">
     <use transform="scale(0.996264)" xlink:href="#CMSS17-54"/>
     <use transform="translate(46.843624 0)scale(0.996264)" xlink:href="#CMSS17-46"/>
     <use transform="translate(72.867828 0)scale(0.996264)" xlink:href="#CMSS17-56"/>
    </g>
   </g>
   <g id="text_11">
    <!-- Setup name -->
    <defs>
     <path d="M 43.703125 65.140625 
C 39.296875 67.71875 34.5 70 26.40625 70 
C 13.5 70 5.203125 60.609375 5.203125 51.03125 
C 5.203125 47.265625 6.296875 43.015625 10.203125 38.671875 
C 14.09375 34.3125 18.5 33.140625 24.09375 31.765625 
C 26.40625 31.15625 30.296875 30.0625 31 29.78125 
C 36.59375 27.609375 39.296875 22.5625 39.296875 17.8125 
C 39.296875 11.59375 34.40625 4.96875 25.703125 4.96875 
C 22.703125 4.96875 13.90625 4.96875 5.59375 12.796875 
L 4.203125 4.96875 
C 12.40625 -1 21.296875 -2 25.796875 -2 
C 38.09375 -2 46.90625 7.625 46.90625 18.53125 
C 46.90625 22.5 45.703125 27.546875 41.5 32.203125 
C 37.40625 36.671875 33.796875 37.65625 25.59375 39.828125 
C 20.90625 41.03125 17.90625 41.828125 15.40625 44.890625 
C 13.703125 47.078125 12.796875 49.15625 12.796875 51.828125 
C 12.796875 57.390625 17.59375 63.4375 26.40625 63.4375 
C 30.796875 63.4375 36.5 62.53125 42.296875 57.1875 
z
" id="CMSS17-83"/>
     <path d="M 40.90625 42.796875 
L 33.296875 42.796875 
L 33.296875 15.1875 
C 33.296875 7.78125 27.90625 4.78125 22.203125 4.78125 
C 15.59375 4.78125 15 6.984375 15 11.078125 
L 15 42.796875 
L 7.40625 42.796875 
L 7.40625 10.59375 
C 7.40625 2.796875 10.09375 -1 17 -1 
C 20.40625 -1 28.09375 -0.203125 33.5 4.78125 
L 33.5 0 
L 40.90625 0 
z
" id="CMSS17-117"/>
     <path d="M 15.09375 5.203125 
C 18.40625 2.015625 22.90625 -0.078125 27.703125 -0.078125 
C 37 -0.078125 45 9.421875 45 22.0625 
C 45 33.734375 39 44 30.40625 44 
C 25.40625 44 19.40625 42.21875 14.90625 38.625 
L 14.90625 43.203125 
L 7.5 43.203125 
L 7.5 -19 
L 15.09375 -19 
z
M 15.09375 32.8125 
C 15.90625 34 19.296875 37.734375 24.796875 37.734375 
C 31.796875 37.734375 37.40625 30.625 37.40625 22.0625 
C 37.40625 12.296875 30.59375 6 23.90625 6 
C 21.90625 6 19.796875 6.484375 17.796875 8.171875 
C 15.09375 10.53125 15.09375 12 15.09375 13.390625 
z
" id="CMSS17-112"/>
     <path d="M 40.90625 29.328125 
C 40.90625 35.671875 39.40625 44 28.09375 44 
C 21.703125 44 17.5 40.71875 14.703125 37.328125 
L 14.703125 43.09375 
L 7.40625 43.09375 
L 7.40625 0 
L 15 0 
L 15 24.359375 
C 15 30.6875 17.40625 37.9375 24.203125 37.9375 
C 33 37.9375 33.296875 32 33.296875 28.578125 
L 33.296875 0 
L 40.90625 0 
z
" id="CMSS17-110"/>
     <path d="M 37.59375 27.984375 
C 37.59375 37.375 30.90625 43.875 21.90625 43.875 
C 17.5 43.875 12.703125 43.078125 7.203125 39.890625 
L 7.796875 33.359375 
C 10.296875 35.125 14.59375 38 21.796875 38 
C 26.90625 38 30 34.0625 30 27.84375 
L 30 24 
C 14 24 4 19.34375 4 11.34375 
C 4 7.203125 6.5 -1 14.796875 -1 
C 16.296875 -1 24.40625 -1 30.203125 3.390625 
L 30.203125 -0.296875 
L 37.59375 -0.296875 
z
M 30 12.75 
C 30 10.953125 30 8.5625 27 6.78125 
C 24.40625 5.078125 21.09375 5.078125 19.703125 5.078125 
C 14.703125 5.078125 11.296875 7.984375 11.296875 11.625 
C 11.296875 18.921875 26.90625 18.921875 30 18.921875 
z
" id="CMSS17-97"/>
     <path d="M 67 29.328125 
C 67 36.0625 65.296875 44 54.09375 44 
C 46.59375 44 42.09375 39.3125 40.09375 36.421875 
C 38.296875 41.71875 34.09375 44 28.09375 44 
C 21.296875 44 17 40.125 14.703125 37.328125 
L 14.703125 43.09375 
L 7.40625 43.09375 
L 7.40625 0 
L 15 0 
L 15 24.359375 
C 15 30.296875 17.203125 37.9375 24.296875 37.9375 
C 33.40625 37.9375 33.40625 31.5 33.40625 28.578125 
L 33.40625 0 
L 41 0 
L 41 24.359375 
C 41 30.296875 43.203125 37.9375 50.296875 37.9375 
C 59.40625 37.9375 59.40625 31.5 59.40625 28.578125 
L 59.40625 0 
L 67 0 
z
" id="CMSS17-109"/>
    </defs>
    <g transform="translate(31.63726 328.65808)scale(0.1 -0.1)">
     <use transform="scale(0.996264)" xlink:href="#CMSS17-83"/>
     <use transform="translate(52.048516 0)scale(0.996264)" xlink:href="#CMSS17-101"/>
     <use transform="translate(93.687338 0)scale(0.996264)" xlink:href="#CMSS17-116"/>
     <use transform="translate(127.518905 0)scale(0.996264)" xlink:href="#CMSS17-117"/>
     <use transform="translate(175.723848 0)scale(0.996264)" xlink:href="#CMSS17-112"/>
     <use transform="translate(255.157904 0)scale(0.996264)" xlink:href="#CMSS17-110"/>
     <use transform="translate(303.362847 0)scale(0.996264)" xlink:href="#CMSS17-97"/>
     <use transform="translate(348.284768 0)scale(0.996264)" xlink:href="#CMSS17-109"/>
     <use transform="translate(422.514022 0)scale(0.996264)" xlink:href="#CMSS17-101"/>
    </g>
    <!-- Grid size -->
    <defs>
     <path d="M 56.40625 29 
L 36.5 29 
L 36.5 22.828125 
L 48.796875 22.828125 
L 48.796875 7.359375 
C 44.90625 6.265625 40.90625 5.46875 36.90625 5.46875 
C 22.90625 5.46875 14.59375 20.328125 14.59375 34.375 
C 14.59375 48.359375 23.296875 63 36.90625 63 
C 44.59375 63 48.90625 60.640625 54.203125 56.671875 
L 55.5 64.59375 
C 48.90625 67.984375 44.796875 69.375 37.296875 69.375 
C 17.90625 69.375 6.203125 51.9375 6.203125 34.09375 
C 6.203125 17.03125 18 -1 36.703125 -1 
C 43.703125 -1 50.203125 0.796875 56.40625 3.875 
z
" id="CMSS17-71"/>
     <path d="M 40.796875 69 
L 33.40625 69 
L 33.40625 38.09375 
C 30.296875 40.671875 25.203125 43.0625 19.59375 43.0625 
C 10.5 43.0625 3.296875 33.296875 3.296875 21.046875 
C 3.296875 8.78125 10.40625 -1 19.296875 -1 
C 26.203125 -1 30.796875 2.6875 33.203125 4.78125 
L 33.203125 -0.203125 
L 40.796875 -0.203125 
z
M 33.203125 13.0625 
C 33.203125 11.671875 33.203125 10.203125 30.09375 7.53125 
C 28.09375 5.859375 25.703125 5.078125 23.40625 5.078125 
C 18 5.078125 10.90625 9 10.90625 20.9375 
C 10.90625 33.34375 18.90625 37 24.40625 37 
C 28.09375 37 31.09375 35.21875 33.203125 32.265625 
z
" id="CMSS17-100"/>
     <path d="M 37.5 39.09375 
L 37.5 42.96875 
L 3.90625 42.96875 
L 3.90625 37 
L 16.703125 37 
C 17.90625 37 19.09375 37 20.296875 37 
L 27.296875 37 
L 2.59375 4.078125 
L 2.59375 0 
L 37.796875 0 
L 37.796875 6.171875 
L 24.203125 6.171875 
C 23 6.171875 21.796875 6.171875 20.59375 6.171875 
L 12.90625 6.171875 
z
" id="CMSS17-122"/>
    </defs>
    <g transform="translate(45.239055 338.897457)scale(0.1 -0.1)">
     <use transform="scale(0.996264)" xlink:href="#CMSS17-71"/>
     <use transform="translate(62.458226 0)scale(0.996264)" xlink:href="#CMSS17-114"/>
     <use transform="translate(94.367998 0)scale(0.996264)" xlink:href="#CMSS17-105"/>
     <use transform="translate(116.548721 0)scale(0.996264)" xlink:href="#CMSS17-100"/>
     <use transform="translate(195.982777 0)scale(0.996264)" xlink:href="#CMSS17-115"/>
     <use transform="translate(231.896319 0)scale(0.996264)" xlink:href="#CMSS17-105"/>
     <use transform="translate(254.077042 0)scale(0.996264)" xlink:href="#CMSS17-122"/>
     <use transform="translate(294.754914 0)scale(0.996264)" xlink:href="#CMSS17-101"/>
    </g>
    <!-- Time step -->
    <defs>
     <path d="M 36.203125 62 
L 44.5 62 
C 45.703125 62 46.90625 62 48.09375 62 
L 60.59375 62 
L 60.59375 68.375 
L 3.40625 68.375 
L 3.40625 62 
L 15.90625 62 
C 17.09375 62 18.296875 62 19.5 62 
L 27.796875 62 
L 27.796875 -0.5 
L 36.203125 -0.5 
z
" id="CMSS17-84"/>
    </defs>
    <g transform="translate(39.27532 349.136833)scale(0.1 -0.1)">
     <use transform="scale(0.996264)" xlink:href="#CMSS17-84"/>
     <use transform="translate(63.819454 0)scale(0.996264)" xlink:href="#CMSS17-105"/>
     <use transform="translate(86.000177 0)scale(0.996264)" xlink:href="#CMSS17-109"/>
     <use transform="translate(160.229431 0)scale(0.996264)" xlink:href="#CMSS17-101"/>
     <use transform="translate(233.097366 0)scale(0.996264)" xlink:href="#CMSS17-115"/>
     <use transform="translate(269.010908 0)scale(0.996264)" xlink:href="#CMSS17-116"/>
     <use transform="translate(302.842475 0)scale(0.996264)" xlink:href="#CMSS17-101"/>
     <use transform="translate(344.481297 0)scale(0.996264)" xlink:href="#CMSS17-112"/>
    </g>
   </g>
   <g id="text_12">
    <!-- ACC -->
    <defs>
     <path d="M 35.5 69 
L 26.90625 69 
L 2.59375 0 
L 10.203125 0 
L 17.203125 20 
L 44 20 
L 51.09375 0 
L 59.796875 0 
z
M 42.09375 25.578125 
L 19.09375 25.578125 
C 23.90625 39.5 29.90625 56.84375 30.59375 61.328125 
L 30.703125 61.328125 
C 31.40625 57.234375 33.40625 51.265625 35.09375 46.1875 
z
" id="CMSS17-65"/>
     <path d="M 54.703125 11.15625 
C 48 6.671875 44.90625 5.375 36.796875 5.375 
C 22.796875 5.375 14.59375 20.359375 14.59375 34.046875 
C 14.59375 48.625 23 63 37.203125 63 
C 43.59375 63 47.796875 61.21875 52.90625 58.046875 
L 54.296875 65.890625 
C 49.5 68.28125 43.40625 69.375 37.296875 69.375 
C 18.09375 69.375 6.203125 51.8125 6.203125 34.046875 
C 6.203125 14.484375 20.296875 -1 36.296875 -1 
C 44.90625 -1 47.90625 -0.296875 55.296875 4.375 
z
" id="CMSS17-67"/>
    </defs>
    <g transform="translate(61.995661 282.122596)scale(0.1 -0.1)">
     <use transform="scale(0.996264)" xlink:href="#CMSS17-65"/>
     <use transform="translate(59.615401 0)scale(0.996264)" xlink:href="#CMSS17-67"/>
     <use transform="translate(119.471173 0)scale(0.996264)" xlink:href="#CMSS17-67"/>
    </g>
    <!-- $60 \times 84 \times 60$ -->
    <defs>
     <path d="M 10.59375 34 
C 10.59375 57.65625 21.796875 63 28.296875 63 
C 30.40625 63 35.5 62.640625 37.5 59 
C 35.90625 59 32.90625 59 32.90625 55.515625 
C 32.90625 52.828125 35.09375 51.921875 36.5 51.921875 
C 37.40625 51.921875 40.09375 52.3125 40.09375 55.625 
C 40.09375 61.78125 35.09375 65.296875 28.203125 65.296875 
C 16.296875 65.296875 3.796875 52.96875 3.796875 31 
C 3.796875 3.953125 15.09375 -2 23.09375 -2 
C 32.796875 -2 42 6.671875 42 20.046875 
C 42 32.515625 33.90625 41.59375 23.703125 41.59375 
C 17.59375 41.59375 13.09375 37.609375 10.59375 30.625 
z
M 23.09375 0.390625 
C 10.796875 0.390625 10.796875 18.75 10.796875 22.4375 
C 10.796875 29.625 14.203125 40 23.5 40 
C 25.203125 40 30.09375 40 33.40625 33.125 
C 35.203125 29.21875 35.203125 25.140625 35.203125 20.140625 
C 35.203125 14.75 35.203125 10.78125 33.09375 6.78125 
C 30.90625 2.671875 27.703125 0.390625 23.09375 0.390625 
z
" id="CMR17-54"/>
     <path d="M 42 31.640625 
C 42 37.75 41.90625 48.125 37.703125 56.109375 
C 34 63.109375 28.09375 65.59375 22.90625 65.59375 
C 18.09375 65.59375 12 63.40625 8.203125 56.203125 
C 4.203125 48.71875 3.796875 39.4375 3.796875 31.640625 
C 3.796875 25.953125 3.90625 17.28125 7 9.671875 
C 11.296875 -0.609375 19 -2 22.90625 -2 
C 27.5 -2 34.5 -0.109375 38.59375 9.375 
C 41.59375 16.28125 42 24.359375 42 31.640625 
z
M 22.90625 -0.40625 
C 16.5 -0.40625 12.703125 5.078125 11.296875 12.6875 
C 10.203125 18.5625 10.203125 27.15625 10.203125 32.75 
C 10.203125 40.4375 10.203125 46.828125 11.5 52.921875 
C 13.40625 61.390625 19 64 22.90625 64 
C 27 64 32.296875 61.296875 34.203125 53.125 
C 35.5 47.4375 35.59375 40.734375 35.59375 32.75 
C 35.59375 26.25 35.59375 18.265625 34.40625 12.375 
C 32.296875 1.484375 26.40625 -0.40625 22.90625 -0.40625 
z
" id="CMR17-48"/>
     <path d="M 38.90625 27.890625 
L 18.90625 47.796875 
C 17.703125 49 17.5 49.1875 16.703125 49.1875 
C 15.703125 49.1875 14.703125 48.296875 14.703125 47.1875 
C 14.703125 46.5 14.90625 46.296875 16 45.1875 
L 36 25.09375 
L 16 5 
C 14.90625 3.890625 14.703125 3.6875 14.703125 3 
C 14.703125 1.890625 15.703125 1 16.703125 1 
C 17.5 1 17.703125 1.1875 18.90625 2.390625 
L 38.796875 22.296875 
L 59.5 1.59375 
C 59.703125 1.5 60.40625 1 61 1 
C 62.203125 1 63 1.890625 63 3 
C 63 3.1875 63 3.59375 62.703125 4.09375 
C 62.59375 4.296875 46.703125 20 41.703125 25.09375 
L 60 43.390625 
C 60.5 44 62 45.296875 62.5 45.890625 
C 62.59375 46.09375 63 46.5 63 47.1875 
C 63 48.296875 62.203125 49.1875 61 49.1875 
C 60.203125 49.1875 59.796875 48.796875 58.703125 47.6875 
z
" id="CMSY10-2"/>
     <path d="M 27.203125 35.375 
C 33.5 38.546875 39.90625 43.328125 39.90625 50.984375 
C 39.90625 60.015625 31.09375 65.296875 23 65.296875 
C 13.90625 65.296875 5.90625 58.734375 5.90625 49.6875 
C 5.90625 47.203125 6.5 42.921875 10.40625 39.140625 
C 11.40625 38.15625 15.59375 35.171875 18.296875 33.28125 
C 13.796875 30.984375 3.296875 25.53125 3.296875 14.59375 
C 3.296875 4.359375 13.09375 -2 22.796875 -2 
C 33.5 -2 42.5 5.65625 42.5 15.78125 
C 42.5 24.84375 36.40625 29.015625 32.40625 31.703125 
z
M 14.09375 44.09375 
C 13.296875 44.59375 9.296875 47.671875 9.296875 52.359375 
C 9.296875 58.421875 15.59375 63 22.796875 63 
C 30.703125 63 36.5 57.4375 36.5 50.96875 
C 36.5 41.703125 26.09375 36.421875 25.59375 36.421875 
C 25.5 36.421875 25.40625 36.421875 24.59375 37.03125 
z
M 32.5 23.734375 
C 34 22.640625 38.796875 19.375 38.796875 13.296875 
C 38.796875 5.953125 31.40625 0.390625 23 0.390625 
C 13.90625 0.390625 7 6.84375 7 14.6875 
C 7 22.546875 13.09375 29.09375 20 32.1875 
z
" id="CMR17-56"/>
     <path d="M 33.59375 64.40625 
C 33.59375 66.5 33.5 66.5 31.703125 66.5 
L 2 19.59375 
L 2 17 
L 27.796875 17 
L 27.796875 7.140625 
C 27.796875 3.5 27.59375 2.5 20.59375 2.5 
L 18.703125 2.5 
L 18.703125 0 
C 21.90625 0 27.296875 0 30.703125 0 
C 34.09375 0 39.5 0 42.703125 0 
L 42.703125 2.5 
L 40.796875 2.5 
C 33.796875 2.5 33.59375 3.5 33.59375 7.140625 
L 33.59375 17 
L 43.796875 17 
L 43.796875 19.59375 
L 33.59375 19.59375 
z
M 28.09375 57.859375 
L 28.09375 19.59375 
L 4 19.59375 
z
" id="CMR17-52"/>
    </defs>
    <g transform="translate(26.849793 292.361972)scale(0.1 -0.1)">
     <use transform="scale(0.996264)" xlink:href="#CMR17-54"/>
     <use transform="translate(45.690477 0)scale(0.996264)" xlink:href="#CMR17-48"/>
     <use transform="translate(113.520161 0)scale(0.996264)" xlink:href="#CMSY10-2"/>
     <use transform="translate(213.146836 0)scale(0.996264)" xlink:href="#CMR17-56"/>
     <use transform="translate(258.837313 0)scale(0.996264)" xlink:href="#CMR17-52"/>
     <use transform="translate(326.666997 0)scale(0.996264)" xlink:href="#CMSY10-2"/>
     <use transform="translate(426.293672 0)scale(0.996264)" xlink:href="#CMR17-54"/>
     <use transform="translate(471.984149 0)scale(0.996264)" xlink:href="#CMR17-48"/>
    </g>
    <!-- 3600s -->
    <g transform="translate(57.346408 302.601349)scale(0.1 -0.1)">
     <use transform="scale(0.996264)" xlink:href="#CMSS17-51"/>
     <use transform="translate(46.843624 0)scale(0.996264)" xlink:href="#CMSS17-54"/>
     <use transform="translate(93.687247 0)scale(0.996264)" xlink:href="#CMSS17-48"/>
     <use transform="translate(140.530871 0)scale(0.996264)" xlink:href="#CMSS17-48"/>
     <use transform="translate(187.374494 0)scale(0.996264)" xlink:href="#CMSS17-115"/>
    </g>
   </g>
   <g id="text_13">
    <!-- ACC -->
    <g transform="translate(61.995661 226.353125)scale(0.1 -0.1)">
     <use transform="scale(0.996264)" xlink:href="#CMSS17-65"/>
     <use transform="translate(59.615401 0)scale(0.996264)" xlink:href="#CMSS17-67"/>
     <use transform="translate(119.471173 0)scale(0.996264)" xlink:href="#CMSS17-67"/>
    </g>
    <!-- $240 \times 336 \times 60$ -->
    <defs>
     <path d="M 41.703125 15.453125 
L 39.90625 15.453125 
C 38.90625 8.375 38.09375 7.171875 37.703125 6.5625 
C 37.203125 5.765625 30 5.765625 28.59375 5.765625 
L 9.40625 5.765625 
C 13 9.671875 20 16.75 28.5 24.953125 
C 34.59375 30.734375 41.703125 37.53125 41.703125 47.421875 
C 41.703125 59.21875 32.296875 66 21.796875 66 
C 10.796875 66 4.09375 56.3125 4.09375 47.34375 
C 4.09375 43.4375 7 42.9375 8.203125 42.9375 
C 9.203125 42.9375 12.203125 43.546875 12.203125 47.03125 
C 12.203125 50.109375 9.59375 51 8.203125 51 
C 7.59375 51 7 50.90625 6.59375 50.703125 
C 8.5 59.21875 14.296875 63.40625 20.40625 63.40625 
C 29.09375 63.40625 34.796875 56.515625 34.796875 47.421875 
C 34.796875 38.734375 29.703125 31.25 24 24.75 
L 4.09375 2.28125 
L 4.09375 0 
L 39.296875 0 
z
" id="CMR17-50"/>
     <path d="M 22.09375 33.703125 
C 31 33.703125 34.90625 25.96875 34.90625 17.03125 
C 34.90625 5 28.5 0.390625 22.703125 0.390625 
C 17.40625 0.390625 8.796875 3.03125 6.09375 10.828125 
C 6.59375 10.625 7.09375 10.625 7.59375 10.625 
C 10 10.625 11.796875 12.21875 11.796875 14.8125 
C 11.796875 17.703125 9.59375 19 7.59375 19 
C 5.90625 19 3.296875 18.203125 3.296875 14.46875 
C 3.296875 5.234375 12.296875 -2 22.90625 -2 
C 34 -2 42.5 6.71875 42.5 16.953125 
C 42.5 26.671875 34.5 33.703125 25 34.796875 
C 32.59375 36.375 39.90625 43.0625 39.90625 52.015625 
C 39.90625 59.6875 32 65.296875 23 65.296875 
C 13.90625 65.296875 5.90625 59.828125 5.90625 52.015625 
C 5.90625 48.59375 8.5 48 9.796875 48 
C 11.90625 48 13.703125 49.296875 13.703125 51.890625 
C 13.703125 54.46875 11.90625 55.765625 9.796875 55.765625 
C 9.40625 55.765625 8.90625 55.765625 8.5 55.578125 
C 11.40625 61.859375 19.296875 63 22.796875 63 
C 26.296875 63 32.90625 61.328125 32.90625 51.875 
C 32.90625 49.109375 32.5 44.1875 29.09375 39.84375 
C 26.09375 36 22.703125 36 19.40625 35.6875 
C 18.90625 35.6875 16.59375 35.453125 16.203125 35.453125 
C 15.5 35.359375 15.09375 35.265625 15.09375 34.5 
C 15.09375 33.796875 15.203125 33.703125 17.203125 33.703125 
z
" id="CMR17-51"/>
    </defs>
    <g transform="translate(16.887123 236.592501)scale(0.1 -0.1)">
     <use transform="scale(0.996264)" xlink:href="#CMR17-50"/>
     <use transform="translate(45.690477 0)scale(0.996264)" xlink:href="#CMR17-52"/>
     <use transform="translate(91.380954 0)scale(0.996264)" xlink:href="#CMR17-48"/>
     <use transform="translate(159.210638 0)scale(0.996264)" xlink:href="#CMSY10-2"/>
     <use transform="translate(258.837313 0)scale(0.996264)" xlink:href="#CMR17-51"/>
     <use transform="translate(304.52779 0)scale(0.996264)" xlink:href="#CMR17-51"/>
     <use transform="translate(350.218267 0)scale(0.996264)" xlink:href="#CMR17-54"/>
     <use transform="translate(418.047951 0)scale(0.996264)" xlink:href="#CMSY10-2"/>
     <use transform="translate(517.674626 0)scale(0.996264)" xlink:href="#CMR17-54"/>
     <use transform="translate(563.365103 0)scale(0.996264)" xlink:href="#CMR17-48"/>
    </g>
    <!-- 900s -->
    <defs>
     <path d="M 6.796875 2.71875 
C 9.59375 0.328125 13.203125 -2 19.296875 -2 
C 31.40625 -2 43 11.265625 43 32.734375 
C 43 61.4375 30.5 66.078125 23.796875 66.078125 
C 17.09375 66.078125 12.796875 63.140625 9.09375 58.453125 
C 4.703125 53.078125 3.90625 48.28125 3.90625 42.703125 
C 3.90625 36.046875 5.09375 31.953125 7.90625 27.265625 
C 11.703125 21.203125 15.203125 19.921875 19.09375 19.921875 
C 25 19.921875 30.90625 22.796875 34.90625 27.75 
C 34.203125 14.09375 28.09375 4.171875 19.296875 4.171875 
C 15.703125 4.171875 12.796875 5.296875 9.90625 8.0625 
z
M 34.59375 42.90625 
C 34.703125 42.234375 34.703125 40.96875 34.703125 40.5625 
C 34.703125 32.40625 29.90625 26 22.90625 26 
C 18.296875 26 15.90625 28.328125 14.09375 31.34375 
C 11.90625 35.140625 11.796875 38.828125 11.796875 42.703125 
C 11.796875 46.5 11.796875 50.6875 14.59375 54.859375 
C 16.703125 57.859375 19.296875 60 23.796875 60 
C 33 60 34.5 46.875 34.59375 42.90625 
z
" id="CMSS17-57"/>
    </defs>
    <g transform="translate(62.327744 246.831877)scale(0.1 -0.1)">
     <use transform="scale(0.996264)" xlink:href="#CMSS17-57"/>
     <use transform="translate(46.843624 0)scale(0.996264)" xlink:href="#CMSS17-48"/>
     <use transform="translate(93.687247 0)scale(0.996264)" xlink:href="#CMSS17-48"/>
     <use transform="translate(140.530871 0)scale(0.996264)" xlink:href="#CMSS17-115"/>
    </g>
   </g>
   <g id="text_14">
    <!-- Wave Propagation -->
    <defs>
     <path d="M 87.203125 69 
L 79.59375 69 
L 71.203125 38.078125 
C 69.90625 33.09375 68.703125 28.140625 67.5 23.15625 
C 65.703125 15.796875 64.40625 10.640625 64.203125 8.046875 
L 64.09375 8.046875 
C 63.90625 10.734375 62.59375 16.390625 61 22.765625 
C 59.796875 28.046875 58.5 33.296875 57.09375 38.46875 
L 48.796875 69 
L 40.40625 69 
L 32.5 40.03125 
L 28.5 24.203125 
C 25.5 11.671875 25.40625 9.875 25.203125 7.890625 
L 25.09375 7.890625 
C 25.09375 8.484375 24.703125 11.765625 21.90625 23.40625 
C 20.5 29.1875 19.09375 35.0625 17.59375 40.640625 
L 9.90625 69 
L 1.296875 69 
L 20.296875 0 
L 28.59375 0 
L 36.5 28.734375 
L 40.5 44.546875 
C 43.203125 55.6875 43.796875 58.46875 44 60.953125 
L 44.09375 60.953125 
C 44.09375 60.5625 45 54.28125 48.90625 39.765625 
L 59.5 0 
L 68.203125 0 
z
" id="CMSS17-87"/>
     <path d="M 41.796875 43 
L 34 43 
L 27.296875 24.3125 
C 25.203125 18.203125 22.203125 9.796875 21.703125 5.5 
L 21.59375 5.5 
C 21.40625 7.3125 20.59375 9.90625 20.09375 11.703125 
C 19.5 13.90625 18.703125 16.5 18.09375 18.3125 
L 9.296875 43 
L 1.296875 43 
L 17.09375 0 
L 26 0 
z
" id="CMSS17-118"/>
     <path d="M 32.90625 29 
C 44.90625 29 54.703125 38.328125 54.703125 49.34375 
C 54.703125 60.15625 45.296875 69.578125 32.296875 69.578125 
L 8.90625 69.578125 
L 8.90625 0 
L 17.296875 0 
L 17.296875 29 
z
M 30.09375 64 
C 41.703125 64 46.796875 56.671875 46.796875 49.328125 
C 46.796875 42.5 42.09375 34.78125 30.09375 34.78125 
L 17.09375 34.78125 
L 17.09375 64 
z
" id="CMSS17-80"/>
     <path d="M 44.203125 21.1875 
C 44.203125 34 34.703125 44 23.5 44 
C 12 44 2.703125 33.703125 2.703125 21.1875 
C 2.703125 8.5 12.296875 -1 23.40625 -1 
C 34.796875 -1 44.203125 8.796875 44.203125 21.1875 
z
M 23.5 5.265625 
C 16.40625 5.265625 10.296875 11.078125 10.296875 22 
C 10.296875 33.609375 17.40625 37.921875 23.40625 37.921875 
C 29.90625 37.921875 36.59375 33.21875 36.59375 22 
C 36.59375 10.671875 30.09375 5.265625 23.5 5.265625 
z
" id="CMSS17-111"/>
     <path d="M 44.5 43.875 
C 38.796875 43.875 33.90625 42.78125 29.90625 40.890625 
C 26.59375 43.390625 23.203125 43.875 20.90625 43.875 
C 12.203125 43.875 5.59375 36.703125 5.59375 28.34375 
C 5.59375 22.9375 8.59375 18.859375 8.796875 18.671875 
C 7 16.171875 6 13.484375 6 10.5 
C 6 7 7.40625 4.515625 8.5 3.125 
C 3.296875 -0.046875 2.59375 -4.90625 2.59375 -6.796875 
C 2.59375 -14.03125 11.703125 -20 23.40625 -20 
C 35.203125 -20 44.296875 -14.03125 44.296875 -6.6875 
C 44.296875 7 29 7 24.796875 7 
L 16.703125 7 
C 15.203125 7 11.203125 7 11.203125 12.359375 
C 11.203125 14.390625 12.09375 15.6875 12.203125 15.78125 
C 13.703125 14.6875 16.796875 13 20.90625 13 
C 29.203125 13 36.09375 19.96875 36.09375 28.546875 
C 36.09375 33.3125 33.90625 36.796875 33 38 
L 33.296875 38 
C 33.59375 38 37.796875 38 39.296875 38 
C 42.5 38 42.796875 37.953125 45.59375 37.796875 
z
M 20.90625 18.46875 
C 17.5 18.46875 12.703125 20.546875 12.703125 28.484375 
C 12.703125 37.109375 18.203125 38.5 20.796875 38.5 
C 24.203125 38.5 29 36.421875 29 28.484375 
C 29 19.859375 23.5 18.46875 20.90625 18.46875 
z
M 24.703125 -0.15625 
C 27.09375 -0.15625 37.203125 -0.15625 37.203125 -6.90625 
C 37.203125 -11.15625 31 -14.515625 23.5 -14.515625 
C 15.90625 -14.515625 9.703125 -11.25 9.703125 -6.796875 
C 9.703125 -6.296875 9.703125 -0.15625 16.59375 -0.15625 
z
" id="CMSS17-103"/>
    </defs>
    <g transform="translate(4.267561 170.583653)scale(0.1 -0.1)">
     <use transform="scale(0.996264)" xlink:href="#CMSS17-87"/>
     <use transform="translate(85.639712 0)scale(0.996264)" xlink:href="#CMSS17-97"/>
     <use transform="translate(130.561633 0)scale(0.996264)" xlink:href="#CMSS17-118"/>
     <use transform="translate(173.561775 0)scale(0.996264)" xlink:href="#CMSS17-101"/>
     <use transform="translate(246.429709 0)scale(0.996264)" xlink:href="#CMSS17-80"/>
     <use transform="translate(306.165296 0)scale(0.996264)" xlink:href="#CMSS17-114"/>
     <use transform="translate(338.075068 0)scale(0.996264)" xlink:href="#CMSS17-111"/>
     <use transform="translate(384.918692 0)scale(0.996264)" xlink:href="#CMSS17-112"/>
     <use transform="translate(433.123635 0)scale(0.996264)" xlink:href="#CMSS17-97"/>
     <use transform="translate(478.045555 0)scale(0.996264)" xlink:href="#CMSS17-103"/>
     <use transform="translate(524.889179 0)scale(0.996264)" xlink:href="#CMSS17-97"/>
     <use transform="translate(569.8111 0)scale(0.996264)" xlink:href="#CMSS17-116"/>
     <use transform="translate(603.642666 0)scale(0.996264)" xlink:href="#CMSS17-105"/>
     <use transform="translate(625.823389 0)scale(0.996264)" xlink:href="#CMSS17-111"/>
     <use transform="translate(672.667013 0)scale(0.996264)" xlink:href="#CMSS17-110"/>
    </g>
    <!-- $360 \times 180 \times 60$ -->
    <defs>
     <path d="M 26.59375 63.40625 
C 26.59375 65.5 26.5 65.5 25.09375 65.5 
C 21.203125 61.1875 15.296875 59.796875 9.703125 59.796875 
C 9.40625 59.796875 8.90625 59.796875 8.796875 59.5 
C 8.703125 59.296875 8.703125 59.09375 8.703125 57 
C 11.796875 57 17 57.59375 21 59.984375 
L 21 7.203125 
C 21 3.6875 20.796875 2.5 12.203125 2.5 
L 9.203125 2.5 
L 9.203125 0 
C 14 0 19 0 23.796875 0 
C 28.59375 0 33.59375 0 38.40625 0 
L 38.40625 2.5 
L 35.40625 2.5 
C 26.796875 2.5 26.59375 3.59375 26.59375 7.15625 
z
" id="CMR17-49"/>
    </defs>
    <g transform="translate(16.887123 180.823029)scale(0.1 -0.1)">
     <use transform="scale(0.996264)" xlink:href="#CMR17-51"/>
     <use transform="translate(45.690477 0)scale(0.996264)" xlink:href="#CMR17-54"/>
     <use transform="translate(91.380954 0)scale(0.996264)" xlink:href="#CMR17-48"/>
     <use transform="translate(159.210638 0)scale(0.996264)" xlink:href="#CMSY10-2"/>
     <use transform="translate(258.837313 0)scale(0.996264)" xlink:href="#CMR17-49"/>
     <use transform="translate(304.52779 0)scale(0.996264)" xlink:href="#CMR17-56"/>
     <use transform="translate(350.218267 0)scale(0.996264)" xlink:href="#CMR17-48"/>
     <use transform="translate(418.047951 0)scale(0.996264)" xlink:href="#CMSY10-2"/>
     <use transform="translate(517.674626 0)scale(0.996264)" xlink:href="#CMR17-54"/>
     <use transform="translate(563.365103 0)scale(0.996264)" xlink:href="#CMR17-48"/>
    </g>
    <!-- 2700s -->
    <g transform="translate(57.346408 191.062406)scale(0.1 -0.1)">
     <use transform="scale(0.996264)" xlink:href="#CMSS17-50"/>
     <use transform="translate(46.843624 0)scale(0.996264)" xlink:href="#CMSS17-55"/>
     <use transform="translate(93.687247 0)scale(0.996264)" xlink:href="#CMSS17-48"/>
     <use transform="translate(140.530871 0)scale(0.996264)" xlink:href="#CMSS17-48"/>
     <use transform="translate(187.374494 0)scale(0.996264)" xlink:href="#CMSS17-115"/>
    </g>
   </g>
   <g id="text_15">
    <!-- Wave Propagation -->
    <g transform="translate(4.267561 114.814182)scale(0.1 -0.1)">
     <use transform="scale(0.996264)" xlink:href="#CMSS17-87"/>
     <use transform="translate(85.639712 0)scale(0.996264)" xlink:href="#CMSS17-97"/>
     <use transform="translate(130.561633 0)scale(0.996264)" xlink:href="#CMSS17-118"/>
     <use transform="translate(173.561775 0)scale(0.996264)" xlink:href="#CMSS17-101"/>
     <use transform="translate(246.429709 0)scale(0.996264)" xlink:href="#CMSS17-80"/>
     <use transform="translate(306.165296 0)scale(0.996264)" xlink:href="#CMSS17-114"/>
     <use transform="translate(338.075068 0)scale(0.996264)" xlink:href="#CMSS17-111"/>
     <use transform="translate(384.918692 0)scale(0.996264)" xlink:href="#CMSS17-112"/>
     <use transform="translate(433.123635 0)scale(0.996264)" xlink:href="#CMSS17-97"/>
     <use transform="translate(478.045555 0)scale(0.996264)" xlink:href="#CMSS17-103"/>
     <use transform="translate(524.889179 0)scale(0.996264)" xlink:href="#CMSS17-97"/>
     <use transform="translate(569.8111 0)scale(0.996264)" xlink:href="#CMSS17-116"/>
     <use transform="translate(603.642666 0)scale(0.996264)" xlink:href="#CMSS17-105"/>
     <use transform="translate(625.823389 0)scale(0.996264)" xlink:href="#CMSS17-111"/>
     <use transform="translate(672.667013 0)scale(0.996264)" xlink:href="#CMSS17-110"/>
    </g>
    <!-- $720 \times 180 \times 60$ -->
    <defs>
     <path d="M 45.09375 61.578125 
L 45.09375 63.765625 
L 21.59375 63.765625 
C 9.90625 63.765625 9.703125 65.078125 9.296875 67 
L 7.5 67 
L 4.59375 48.34375 
L 6.40625 48.34375 
C 6.703125 50.234375 7.40625 55.3125 8.59375 57.203125 
C 9.203125 58 16.59375 58 18.296875 58 
L 40.296875 58 
L 29.203125 41.578125 
C 21.796875 30.53125 16.703125 15.609375 16.703125 2.578125 
C 16.703125 1.390625 16.703125 -2 20.296875 -2 
C 23.90625 -2 23.90625 1.390625 23.90625 2.671875 
L 23.90625 7.265625 
C 23.90625 23.5625 26.703125 34.3125 31.296875 41.1875 
z
" id="CMR17-55"/>
    </defs>
    <g transform="translate(16.887123 125.053558)scale(0.1 -0.1)">
     <use transform="scale(0.996264)" xlink:href="#CMR17-55"/>
     <use transform="translate(45.690477 0)scale(0.996264)" xlink:href="#CMR17-50"/>
     <use transform="translate(91.380954 0)scale(0.996264)" xlink:href="#CMR17-48"/>
     <use transform="translate(159.210638 0)scale(0.996264)" xlink:href="#CMSY10-2"/>
     <use transform="translate(258.837313 0)scale(0.996264)" xlink:href="#CMR17-49"/>
     <use transform="translate(304.52779 0)scale(0.996264)" xlink:href="#CMR17-56"/>
     <use transform="translate(350.218267 0)scale(0.996264)" xlink:href="#CMR17-48"/>
     <use transform="translate(418.047951 0)scale(0.996264)" xlink:href="#CMSY10-2"/>
     <use transform="translate(517.674626 0)scale(0.996264)" xlink:href="#CMR17-54"/>
     <use transform="translate(563.365103 0)scale(0.996264)" xlink:href="#CMR17-48"/>
    </g>
    <!-- 2400s -->
    <g transform="translate(57.346408 135.292934)scale(0.1 -0.1)">
     <use transform="scale(0.996264)" xlink:href="#CMSS17-50"/>
     <use transform="translate(46.843624 0)scale(0.996264)" xlink:href="#CMSS17-52"/>
     <use transform="translate(93.687247 0)scale(0.996264)" xlink:href="#CMSS17-48"/>
     <use transform="translate(140.530871 0)scale(0.996264)" xlink:href="#CMSS17-48"/>
     <use transform="translate(187.374494 0)scale(0.996264)" xlink:href="#CMSS17-115"/>
    </g>
   </g>
   <g id="text_16">
    <!-- Global $1^\circ{}$ -->
    <defs>
     <path d="M 44.40625 25 
C 44.40625 35.578125 35.5 44.1875 25 44.1875 
C 14.203125 44.1875 5.5 35.375 5.5 25 
C 5.5 14.53125 14.203125 5.8125 25 5.8125 
C 35.5 5.8125 44.40625 14.421875 44.40625 25 
z
M 25 9.8125 
C 16.296875 9.8125 9.5 16.71875 9.5 25 
C 9.5 33.28125 16.40625 40.1875 25 40.1875 
C 33.296875 40.1875 40.40625 33.46875 40.40625 25 
C 40.40625 16.53125 33.296875 9.8125 25 9.8125 
z
" id="CMSY10-14"/>
    </defs>
    <g transform="translate(42.388599 59.04471)scale(0.1 -0.1)">
     <use transform="scale(0.996264)" xlink:href="#CMSS17-71"/>
     <use transform="translate(62.458226 0)scale(0.996264)" xlink:href="#CMSS17-108"/>
     <use transform="translate(84.638949 0)scale(0.996264)" xlink:href="#CMSS17-111"/>
     <use transform="translate(131.482572 0)scale(0.996264)" xlink:href="#CMSS17-98"/>
     <use transform="translate(179.687515 0)scale(0.996264)" xlink:href="#CMSS17-97"/>
     <use transform="translate(224.609436 0)scale(0.996264)" xlink:href="#CMSS17-108"/>
     <use transform="translate(278.019272 0)scale(0.996264)" xlink:href="#CMR17-49"/>
     <use transform="translate(323.709749 36.153639)scale(0.697382)" xlink:href="#CMSY10-14"/>
    </g>
    <!-- $360 \times 160 \times 115$ -->
    <defs>
     <path d="M 11.40625 57.6875 
C 12.40625 57.28125 16.5 56 20.703125 56 
C 30 56 35.09375 61.109375 38 64.0625 
C 38 64.953125 38 65.5 37.40625 65.5 
C 37.296875 65.5 37.09375 65.5 36.296875 65.046875 
C 32.796875 63.40625 28.703125 62.078125 23.703125 62.078125 
C 20.703125 62.078125 16.203125 62.484375 11.296875 64.671875 
C 10.203125 65.171875 10 65.171875 9.90625 65.171875 
C 9.40625 65.171875 9.296875 65.0625 9.296875 63.078125 
L 9.296875 34.421875 
C 9.296875 32.640625 9.296875 32.140625 10.296875 32.140625 
C 10.796875 32.140625 11 32.34375 11.5 33.03125 
C 14.703125 37.515625 19.09375 39.40625 24.09375 39.40625 
C 27.59375 39.40625 35.09375 37.21875 35.09375 20.140625 
C 35.09375 16.953125 35.09375 11.171875 32.09375 6.578125 
C 29.59375 2.484375 25.703125 0.390625 21.40625 0.390625 
C 14.796875 0.390625 8.09375 5 6.296875 12.71875 
C 6.703125 12.609375 7.5 12.421875 7.90625 12.421875 
C 9.203125 12.421875 11.703125 13.125 11.703125 16.21875 
C 11.703125 18.90625 9.796875 20 7.90625 20 
C 5.59375 20 4.09375 18.59375 4.09375 15.796875 
C 4.09375 7.09375 11 -2 21.59375 -2 
C 31.90625 -2 41.703125 6.875 41.703125 19.75 
C 41.703125 31.71875 33.90625 41 24.203125 41 
C 19.09375 41 14.796875 39.109375 11.40625 35.53125 
z
" id="CMR17-53"/>
    </defs>
    <g transform="translate(11.905788 69.284087)scale(0.1 -0.1)">
     <use transform="scale(0.996264)" xlink:href="#CMR17-51"/>
     <use transform="translate(45.690477 0)scale(0.996264)" xlink:href="#CMR17-54"/>
     <use transform="translate(91.380954 0)scale(0.996264)" xlink:href="#CMR17-48"/>
     <use transform="translate(159.210638 0)scale(0.996264)" xlink:href="#CMSY10-2"/>
     <use transform="translate(258.837313 0)scale(0.996264)" xlink:href="#CMR17-49"/>
     <use transform="translate(304.52779 0)scale(0.996264)" xlink:href="#CMR17-54"/>
     <use transform="translate(350.218267 0)scale(0.996264)" xlink:href="#CMR17-48"/>
     <use transform="translate(418.047951 0)scale(0.996264)" xlink:href="#CMSY10-2"/>
     <use transform="translate(517.674626 0)scale(0.996264)" xlink:href="#CMR17-49"/>
     <use transform="translate(563.365103 0)scale(0.996264)" xlink:href="#CMR17-49"/>
     <use transform="translate(609.05558 0)scale(0.996264)" xlink:href="#CMR17-53"/>
    </g>
    <!-- 2700s -->
    <g transform="translate(57.346408 79.523463)scale(0.1 -0.1)">
     <use transform="scale(0.996264)" xlink:href="#CMSS17-50"/>
     <use transform="translate(46.843624 0)scale(0.996264)" xlink:href="#CMSS17-55"/>
     <use transform="translate(93.687247 0)scale(0.996264)" xlink:href="#CMSS17-48"/>
     <use transform="translate(140.530871 0)scale(0.996264)" xlink:href="#CMSS17-48"/>
     <use transform="translate(187.374494 0)scale(0.996264)" xlink:href="#CMSS17-115"/>
    </g>
   </g>
   <g id="text_17">
    <!-- Veros performance on DC$^3$ (wall hours / year) -->
    <defs>
     <path d="M 61.09375 69 
L 53.296875 69 
L 36 21.28125 
C 35.5 19.890625 32.40625 10.75 31.796875 7.5625 
L 31.703125 7.5625 
C 30.90625 11.34375 27.703125 20.1875 26 25.0625 
L 14.40625 57.375 
L 10.09375 69 
L 1.296875 69 
L 26.796875 0 
L 35.59375 0 
z
" id="CMSS17-86"/>
     <path d="M 16.796875 37 
L 26.90625 37 
L 26.90625 42.765625 
L 16.59375 42.765625 
L 16.59375 55.609375 
C 16.59375 62.71875 22 63.9375 25.09375 63.9375 
C 26.09375 63.9375 28.90625 63.9375 32.5 62.640625 
L 32.5 69.203125 
C 30.203125 69.703125 27.40625 70 25.203125 70 
C 15.90625 70 9.40625 62.390625 9.40625 52.484375 
L 9.40625 42.765625 
L 2.5 42.765625 
L 2.5 37 
L 9.40625 37 
L 9.40625 0 
L 16.796875 0 
z
" id="CMSS17-102"/>
     <path d="M 38.5 39.703125 
C 38.5 40.390625 33.90625 42.40625 32.703125 42.796875 
C 29.40625 44 25.203125 44 24.09375 44 
C 11.09375 44 3.296875 32.703125 3.296875 21.296875 
C 3.296875 9.296875 12 -1 23.703125 -1 
C 30.40625 -1 35.203125 1.1875 39.09375 3.78125 
L 38.5 10.375 
C 34.203125 7.078125 29.203125 5.265625 23.796875 5.265625 
C 16 5.265625 10.90625 12.09375 10.90625 21.390625 
C 10.90625 28.609375 14.203125 37.71875 24.203125 37.71875 
C 29.703125 37.71875 32.796875 36.609375 37.40625 33.515625 
z
" id="CMSS17-99"/>
     <path d="M 8.90625 69 
L 8.90625 0 
L 33.5 0 
C 49.90625 0 62.5 15.3125 62.5 33.90625 
C 62.5 53.09375 49.90625 69 33.5 69 
z
M 17.09375 5.578125 
L 17.09375 63.421875 
L 31.296875 63.421875 
C 44.703125 63.421875 54.296875 51.203125 54.296875 33.90625 
C 54.296875 17.296875 44.796875 5.578125 31.296875 5.578125 
z
" id="CMSS17-68"/>
     <path d="M 62.703125 43 
L 55.09375 43 
L 49.796875 25.015625 
C 48.703125 21.21875 45.59375 10.703125 45.203125 5.796875 
L 45.09375 5.796875 
C 44.90625 8.8125 43.203125 16 40.40625 25.515625 
L 35.296875 43 
L 28.40625 43 
L 23.40625 25.90625 
C 20.90625 17.203125 19 9.796875 18.796875 5.796875 
L 18.703125 5.796875 
C 18.296875 11.703125 14.203125 25.515625 13.59375 27.703125 
L 9.09375 43 
L 1.296875 43 
L 14.296875 0 
L 21.90625 0 
C 27.09375 17.125 31.09375 30.359375 31.40625 37.03125 
C 31.59375 33.75 33.296875 26.671875 34.296875 23.1875 
L 40.90625 0 
L 49.703125 0 
z
" id="CMSS17-119"/>
     <path d="M 40.90625 29.546875 
C 40.90625 35.8125 39.40625 44.0625 28.09375 44.0625 
C 21.796875 44.0625 17.703125 40.984375 14.796875 37.609375 
L 14.796875 69.5 
L 7.40625 69.5 
L 7.40625 0.5 
L 15 0.5 
L 15 24.578125 
C 15 30.828125 17.40625 38 24.203125 38 
C 33 38 33.296875 32.125 33.296875 28.734375 
L 33.296875 0.5 
L 40.90625 0.5 
z
" id="CMSS17-104"/>
     <path d="M 41.203125 71.015625 
C 41.703125 72.296875 41.703125 72.5 41.703125 72.703125 
C 41.703125 73.890625 40.796875 74.5 40 74.5 
C 38.796875 74.5 38.40625 73.703125 38 72.5 
L 5.703125 -21.515625 
C 5.203125 -22.8125 5.203125 -23.015625 5.203125 -23.21875 
C 5.203125 -24.40625 6.09375 -25 6.90625 -25 
C 8.09375 -25 8.5 -24.203125 8.90625 -23.015625 
z
" id="CMSS17-47"/>
     <path d="M 41.796875 43 
L 34 43 
C 25.5 20.21875 22.59375 10.96875 22.40625 5.984375 
L 22.296875 5.984375 
C 22 10.875 17.59375 22.8125 14.09375 31.359375 
L 9.40625 43 
L 1.296875 43 
L 19 0.203125 
C 17.90625 -2.78125 16.296875 -7.265625 15.796875 -8.265625 
C 13.59375 -13.828125 12.09375 -13.828125 10.5 -13.828125 
C 10.09375 -13.828125 6.90625 -13.828125 3.296875 -12.640625 
L 3.90625 -19.203125 
C 6.40625 -19.703125 8.90625 -20 10.703125 -20 
C 13.203125 -20 18.203125 -20 22.796875 -7.765625 
z
" id="CMSS17-121"/>
    </defs>
    <g transform="translate(39.680889 20.017976)scale(0.12 -0.12)">
     <use transform="scale(0.996264)" xlink:href="#CMSS17-86"/>
     <use transform="translate(59.615401 0)scale(0.996264)" xlink:href="#CMSS17-101"/>
     <use transform="translate(101.254223 0)scale(0.996264)" xlink:href="#CMSS17-114"/>
     <use transform="translate(133.163996 0)scale(0.996264)" xlink:href="#CMSS17-111"/>
     <use transform="translate(180.007619 0)scale(0.996264)" xlink:href="#CMSS17-115"/>
     <use transform="translate(247.150274 0)scale(0.996264)" xlink:href="#CMSS17-112"/>
     <use transform="translate(297.957656 0)scale(0.996264)" xlink:href="#CMSS17-101"/>
     <use transform="translate(339.596478 0)scale(0.996264)" xlink:href="#CMSS17-114"/>
     <use transform="translate(371.50625 0)scale(0.996264)" xlink:href="#CMSS17-102"/>
     <use transform="translate(400.132909 0)scale(0.996264)" xlink:href="#CMSS17-111"/>
     <use transform="translate(444.374079 0)scale(0.996264)" xlink:href="#CMSS17-114"/>
     <use transform="translate(476.283851 0)scale(0.996264)" xlink:href="#CMSS17-109"/>
     <use transform="translate(550.513106 0)scale(0.996264)" xlink:href="#CMSS17-97"/>
     <use transform="translate(595.435026 0)scale(0.996264)" xlink:href="#CMSS17-110"/>
     <use transform="translate(643.639969 0)scale(0.996264)" xlink:href="#CMSS17-99"/>
     <use transform="translate(685.278792 0)scale(0.996264)" xlink:href="#CMSS17-101"/>
     <use transform="translate(758.146726 0)scale(0.996264)" xlink:href="#CMSS17-111"/>
     <use transform="translate(804.99035 0)scale(0.996264)" xlink:href="#CMSS17-110"/>
     <use transform="translate(884.424406 0)scale(0.996264)" xlink:href="#CMSS17-68"/>
     <use transform="translate(951.967247 0)scale(0.996264)" xlink:href="#CMSS17-67"/>
     <use transform="translate(1011.823019 36.153639)scale(0.697382)" xlink:href="#CMR17-51"/>
     <use transform="translate(1075.533446 0)scale(0.996264)" xlink:href="#CMSS17-40"/>
     <use transform="translate(1111.96736 0)scale(0.996264)" xlink:href="#CMSS17-119"/>
     <use transform="translate(1173.184451 0)scale(0.996264)" xlink:href="#CMSS17-97"/>
     <use transform="translate(1218.106372 0)scale(0.996264)" xlink:href="#CMSS17-108"/>
     <use transform="translate(1240.287095 0)scale(0.996264)" xlink:href="#CMSS17-108"/>
     <use transform="translate(1293.696931 0)scale(0.996264)" xlink:href="#CMSS17-104"/>
     <use transform="translate(1341.901874 0)scale(0.996264)" xlink:href="#CMSS17-111"/>
     <use transform="translate(1388.745497 0)scale(0.996264)" xlink:href="#CMSS17-117"/>
     <use transform="translate(1436.95044 0)scale(0.996264)" xlink:href="#CMSS17-114"/>
     <use transform="translate(1468.860213 0)scale(0.996264)" xlink:href="#CMSS17-115"/>
     <use transform="translate(1536.002868 0)scale(0.996264)" xlink:href="#CMSS17-47"/>
     <use transform="translate(1614.075604 0)scale(0.996264)" xlink:href="#CMSS17-121"/>
     <use transform="translate(1654.473292 0)scale(0.996264)" xlink:href="#CMSS17-101"/>
     <use transform="translate(1696.112114 0)scale(0.996264)" xlink:href="#CMSS17-97"/>
     <use transform="translate(1738.43158 0)scale(0.996264)" xlink:href="#CMSS17-114"/>
     <use transform="translate(1770.341353 0)scale(0.996264)" xlink:href="#CMSS17-41"/>
    </g>
   </g>
   <g id="legend_1">
    <g id="patch_14">
     <path d="M 203.973803 291.925643 
L 223.973803 291.925643 
L 223.973803 284.925643 
L 203.973803 284.925643 
z
" style="fill:#08519c;opacity:0.6;"/>
    </g>
    <g id="text_18">
     <!-- Bh CPU -->
     <defs>
      <path d="M 8.90625 69 
L 8.90625 0 
L 33.796875 0 
C 47.40625 0 57.296875 8.96875 57.296875 18.75 
C 57.296875 26.328125 50.796875 34 39.09375 36.203125 
C 52.09375 39.96875 54.703125 47.5 54.703125 51.765625 
C 54.703125 60.671875 44.90625 69 31.203125 69 
z
M 17 39 
L 17 63.421875 
L 28.5 63.421875 
C 38.796875 63.421875 46.90625 58.1875 46.90625 51.65625 
C 46.90625 45.71875 40.5 39 27.59375 39 
z
M 17 5.578125 
L 17 32.921875 
L 30.296875 32.921875 
C 41.09375 32.921875 49.40625 26.234375 49.40625 18.84375 
C 49.40625 12.0625 42.09375 5.578125 31 5.578125 
z
" id="CMSS17-66"/>
      <path d="M 55.5 68.5 
L 47.90625 68.5 
L 47.90625 22.640625 
C 47.90625 9.4375 39.796875 3.578125 32.40625 3.578125 
C 24.796875 3.578125 17.203125 9.734375 17.203125 22.546875 
L 17.203125 68.5 
L 8.796875 68.5 
L 8.796875 22.71875 
C 8.796875 8.421875 19.90625 -2 32.296875 -2 
C 44.703125 -2 55.5 8.421875 55.5 22.71875 
z
" id="CMSS17-85"/>
     </defs>
     <g transform="translate(231.973803 291.925643)scale(0.1 -0.1)">
      <use transform="scale(0.996264)" xlink:href="#CMSS17-66"/>
      <use transform="translate(62.33804 0)scale(0.996264)" xlink:href="#CMSS17-104"/>
      <use transform="translate(141.772096 0)scale(0.996264)" xlink:href="#CMSS17-67"/>
      <use transform="translate(201.627868 0)scale(0.996264)" xlink:href="#CMSS17-80"/>
      <use transform="translate(261.363454 0)scale(0.996264)" xlink:href="#CMSS17-85"/>
     </g>
    </g>
    <g id="patch_15">
     <path d="M 203.973803 305.862822 
L 223.973803 305.862822 
L 223.973803 298.862822 
L 203.973803 298.862822 
z
" style="fill:#cb181d;opacity:0.6;"/>
    </g>
    <g id="text_19">
     <!-- Bh GPU -->
     <g transform="translate(231.973803 305.862822)scale(0.1 -0.1)">
      <use transform="scale(0.996264)" xlink:href="#CMSS17-66"/>
      <use transform="translate(62.33804 0)scale(0.996264)" xlink:href="#CMSS17-104"/>
      <use transform="translate(141.772096 0)scale(0.996264)" xlink:href="#CMSS17-71"/>
      <use transform="translate(204.230322 0)scale(0.996264)" xlink:href="#CMSS17-80"/>
      <use transform="translate(263.965908 0)scale(0.996264)" xlink:href="#CMSS17-85"/>
     </g>
    </g>
   </g>
  </g>
 </g>
 <defs>
  <clipPath id="pd5b6c50118">
   <rect height="276.935261" width="189.54" x="86.4" y="39.864739"/>
  </clipPath>
 </defs>
</svg>
