<?xml version="1.0" encoding="UTF-8" standalone="no"?>
<!-- Created with Inkscape (http://www.inkscape.org/) -->

<svg
   xmlns:dc="http://purl.org/dc/elements/1.1/"
   xmlns:cc="http://creativecommons.org/ns#"
   xmlns:rdf="http://www.w3.org/1999/02/22-rdf-syntax-ns#"
   xmlns:svg="http://www.w3.org/2000/svg"
   xmlns="http://www.w3.org/2000/svg"
   xmlns:sodipodi="http://sodipodi.sourceforge.net/DTD/sodipodi-0.dtd"
   xmlns:inkscape="http://www.inkscape.org/namespaces/inkscape"
   width="150.14259mm"
   height="93.772179mm"
   viewBox="0 0 532.00132 332.26362"
   id="svg2"
   version="1.1"
   inkscape:version="0.91 r13725"
   sodipodi:docname="c-grid.svg">
  <defs
     id="defs4" />
  <sodipodi:namedview
     id="base"
     pagecolor="#ffffff"
     bordercolor="#666666"
     borderopacity="1.0"
     inkscape:pageopacity="0.0"
     inkscape:pageshadow="2"
     inkscape:zoom="2.8284272"
     inkscape:cx="266.15526"
     inkscape:cy="66.771724"
     inkscape:document-units="px"
     inkscape:current-layer="layer1"
     showgrid="false"
     inkscape:object-paths="true"
     inkscape:snap-midpoints="true"
     inkscape:object-nodes="true"
     fit-margin-top="0"
     fit-margin-left="0"
     fit-margin-right="0"
     fit-margin-bottom="0"
     inkscape:window-width="1855"
     inkscape:window-height="1056"
     inkscape:window-x="65"
     inkscape:window-y="24"
     inkscape:window-maximized="1" />
  <metadata
     id="metadata7">
    <rdf:RDF>
      <cc:Work
         rdf:about="">
        <dc:format>image/svg+xml</dc:format>
        <dc:type
           rdf:resource="http://purl.org/dc/dcmitype/StillImage" />
        <dc:title />
      </cc:Work>
    </rdf:RDF>
  </metadata>
  <g
     inkscape:label="Layer 1"
     inkscape:groupmode="layer"
     id="layer1"
     transform="translate(-74.562695,-111.30005)">
    <rect
       style="fill:#ff0000;fill-opacity:0.47058824;stroke:#000000;stroke-width:0.96899998;stroke-miterlimit:4;stroke-dasharray:none;stroke-dashoffset:0;stroke-opacity:1"
       y="202.84666"
       x="340.49976"
       height="149.03107"
       width="249.01579"
       id="rect4140" />
    <rect
       style="fill:#ff0000;fill-opacity:0.47058824;stroke:#000000;stroke-width:0.96899998;stroke-miterlimit:4;stroke-dasharray:none;stroke-dashoffset:0;stroke-opacity:1"
       y="202.84666"
       x="90.484467"
       height="149.03107"
       width="249.01579"
       id="rect4142" />
    <rect
       style="fill:#00d4d4;fill-opacity:0.29949239;stroke:#000000;stroke-width:0.96899998;stroke-miterlimit:4;stroke-dasharray:none;stroke-dashoffset:0;stroke-opacity:1"
       y="127.84667"
       x="215.48447"
       height="149.03105"
       width="249.03104"
       id="rect4144" />
    <rect
       style="fill:#00d4d4;fill-opacity:0.29949239;stroke:#000000;stroke-width:0.96899998;stroke-miterlimit:4;stroke-dasharray:none;stroke-dashoffset:0;stroke-opacity:1"
       y="277.84668"
       x="215.48447"
       height="149.03105"
       width="249.03104"
       id="rect4146" />
    <rect
       id="rect3336"
       width="249.03104"
       height="149.03105"
       x="215.48447"
       y="202.84668"
       style="fill:#000000;fill-opacity:0.47058824;stroke:#000000;stroke-width:0.96895576;stroke-miterlimit:4;stroke-dasharray:none;stroke-dashoffset:0;stroke-opacity:1" />
    <circle
       style="fill:#ff7171;fill-opacity:1;stroke:#000000;stroke-width:1;stroke-miterlimit:4;stroke-dasharray:none;stroke-dashoffset:0;stroke-opacity:1"
       id="circle4152"
       cx="216.31186"
       cy="426.83127"
       r="15.931925" />
    <g
       style="font-style:normal;font-weight:normal;font-size:18.82396698px;line-height:125%;font-family:sans-serif;letter-spacing:0px;word-spacing:0px;fill:#000000;fill-opacity:1;stroke:none;stroke-width:1px;stroke-linecap:butt;stroke-linejoin:miter;stroke-opacity:1"
       id="text4162">
      <path
         d="m 222.38458,417.96425 -2.40947,0 0,11.57047 c 0,2.68555 -1.17963,4.01578 -3.6644,4.01578 -2.45966,0 -3.6393,-1.33023 -3.6393,-4.01578 l 0,-11.57047 -2.38437,0 0,11.74616 c 0,3.43851 2.08319,5.84798 6.02367,5.84798 3.89029,0 6.07387,-2.40947 6.07387,-5.84798 l 0,-11.74616 z"
         style="font-style:normal;font-variant:normal;font-weight:normal;font-stretch:normal;font-size:25.09862328px;font-family:'Fira Sans';-inkscape-font-specification:'Fira Sans';fill:#000000;fill-opacity:1"
         id="path3502" />
    </g>
    <circle
       r="15.931925"
       cy="202.59312"
       cx="339.58734"
       id="circle4150"
       style="fill:#b7f1f1;fill-opacity:1;stroke:#000000;stroke-width:1;stroke-miterlimit:4;stroke-dasharray:none;stroke-dashoffset:0;stroke-opacity:1" />
    <g
       style="font-style:normal;font-weight:normal;font-size:18.82396698px;line-height:125%;font-family:sans-serif;letter-spacing:0px;word-spacing:0px;fill:#000000;fill-opacity:1;stroke:none;stroke-width:1px;stroke-linecap:butt;stroke-linejoin:miter;stroke-opacity:1"
       id="text4174">
      <path
         d="m 346.29957,194.21884 -2.40946,0 -4.34207,14.7078 -4.34206,-14.7078 -2.56006,0 5.5719,17.29296 2.56006,0 5.52169,-17.29296 z"
         style="font-style:normal;font-variant:normal;font-weight:normal;font-stretch:normal;font-size:25.09862328px;font-family:'Fira Sans';-inkscape-font-specification:'Fira Sans'"
         id="path3430" />
    </g>
    <circle
       cy="277.06342"
       cx="589.8316"
       id="circle4154"
       style="fill:#616161;fill-opacity:1;stroke:#000000;stroke-width:1.60098124;stroke-miterlimit:4;stroke-dasharray:none;stroke-dashoffset:0;stroke-opacity:1"
       r="15.931925" />
    <g
       style="font-style:normal;font-weight:normal;font-size:18.82396698px;line-height:125%;font-family:sans-serif;letter-spacing:0px;word-spacing:0px;fill:#000000;fill-opacity:1;stroke:none;stroke-width:1px;stroke-linecap:butt;stroke-linejoin:miter;stroke-opacity:1"
       id="text4158">
      <path
         d="m 596.56557,268.184 -13.37757,0 0,2.2024 5.32928,0 0,16.53163 2.58306,0 0,-16.53163 5.19333,0 0.2719,-2.2024 z"
         style="font-style:normal;font-variant:normal;font-weight:normal;font-stretch:normal;font-size:27.1901741px;font-family:'Fira Sans';-inkscape-font-specification:'Fira Sans';fill:#ffffff;fill-opacity:1"
         id="path3418" />
    </g>
    <circle
       r="15.931925"
       style="fill:#616161;fill-opacity:1;stroke:#000000;stroke-width:1.60098124;stroke-miterlimit:4;stroke-dasharray:none;stroke-dashoffset:0;stroke-opacity:1"
       id="circle4185"
       cx="339.58734"
       cy="128.03247" />
    <g
       style="font-style:normal;font-weight:normal;font-size:18.82396698px;line-height:125%;font-family:sans-serif;letter-spacing:0px;word-spacing:0px;fill:#000000;fill-opacity:1;stroke:none;stroke-width:1px;stroke-linecap:butt;stroke-linejoin:miter;stroke-opacity:1"
       id="text4187">
      <path
         d="m 346.32128,119.15304 -13.37757,0 0,2.2024 5.32927,0 0,16.53163 2.58307,0 0,-16.53163 5.19332,0 0.27191,-2.2024 z"
         style="font-style:normal;font-variant:normal;font-weight:normal;font-stretch:normal;font-size:27.1901741px;font-family:'Fira Sans';-inkscape-font-specification:'Fira Sans';fill:#ffffff;fill-opacity:1"
         id="path3433" />
    </g>
    <circle
       cy="426.83127"
       cx="339.58734"
       id="circle4193"
       style="fill:#616161;fill-opacity:1;stroke:#000000;stroke-width:1.60098124;stroke-miterlimit:4;stroke-dasharray:none;stroke-dashoffset:0;stroke-opacity:1"
       r="15.931925" />
    <g
       style="font-style:normal;font-weight:normal;font-size:18.82396698px;line-height:125%;font-family:sans-serif;letter-spacing:0px;word-spacing:0px;fill:#000000;fill-opacity:1;stroke:none;stroke-width:1px;stroke-linecap:butt;stroke-linejoin:miter;stroke-opacity:1"
       id="text4195">
      <path
         d="m 346.32128,417.95182 -13.37757,0 0,2.20241 5.32927,0 0,16.53162 2.58307,0 0,-16.53162 5.19332,0 0.27191,-2.20241 z"
         style="font-style:normal;font-variant:normal;font-weight:normal;font-stretch:normal;font-size:27.1901741px;font-family:'Fira Sans';-inkscape-font-specification:'Fira Sans';fill:#ffffff;fill-opacity:1"
         id="path3442" />
    </g>
    <circle
       r="15.931925"
       cy="277.06342"
       cx="463.61502"
       id="circle4222"
       style="fill:#ff7171;fill-opacity:1;stroke:#000000;stroke-width:1;stroke-miterlimit:4;stroke-dasharray:none;stroke-dashoffset:0;stroke-opacity:1" />
    <g
       style="font-style:normal;font-weight:normal;font-size:18.82396698px;line-height:125%;font-family:sans-serif;letter-spacing:0px;word-spacing:0px;fill:#000000;fill-opacity:1;stroke:none;stroke-width:1px;stroke-linecap:butt;stroke-linejoin:miter;stroke-opacity:1"
       id="text4224">
      <path
         d="m 469.68774,268.19643 -2.40947,0 0,11.57046 c 0,2.68556 -1.17963,4.01578 -3.66439,4.01578 -2.45967,0 -3.63931,-1.33022 -3.63931,-4.01578 l 0,-11.57046 -2.38436,0 0,11.74615 c 0,3.43852 2.08318,5.84798 6.02367,5.84798 3.89028,0 6.07386,-2.40946 6.07386,-5.84798 l 0,-11.74615 z"
         style="font-style:normal;font-variant:normal;font-weight:normal;font-stretch:normal;font-size:25.09862328px;font-family:'Fira Sans';-inkscape-font-specification:'Fira Sans';fill:#000000;fill-opacity:1"
         id="path3484" />
    </g>
    <circle
       r="15.931925"
       style="fill:#616161;fill-opacity:1;stroke:#000000;stroke-width:1.60098124;stroke-miterlimit:4;stroke-dasharray:none;stroke-dashoffset:0;stroke-opacity:1"
       id="circle4230"
       cx="91.295113"
       cy="277.06342" />
    <g
       style="font-style:normal;font-weight:normal;font-size:18.82396698px;line-height:125%;font-family:sans-serif;letter-spacing:0px;word-spacing:0px;fill:#000000;fill-opacity:1;stroke:none;stroke-width:1px;stroke-linecap:butt;stroke-linejoin:miter;stroke-opacity:1"
       id="text4232">
      <path
         d="m 98.029048,268.184 -13.377566,0 0,2.2024 5.329274,0 0,16.53163 2.583067,0 0,-16.53163 5.193323,0 0.271902,-2.2024 z"
         style="font-style:normal;font-variant:normal;font-weight:normal;font-stretch:normal;font-size:27.1901741px;font-family:'Fira Sans';-inkscape-font-specification:'Fira Sans';fill:#ffffff;fill-opacity:1"
         id="path3439" />
    </g>
    <circle
       cy="277.06342"
       cx="339.58734"
       id="circle4238"
       style="fill:#616161;fill-opacity:1;stroke:#000000;stroke-width:1.60098124;stroke-miterlimit:4;stroke-dasharray:none;stroke-dashoffset:0;stroke-opacity:1"
       r="15.931925" />
    <g
       style="font-style:normal;font-weight:normal;font-size:18.82396698px;line-height:125%;font-family:sans-serif;letter-spacing:0px;word-spacing:0px;fill:#000000;fill-opacity:1;stroke:none;stroke-width:1px;stroke-linecap:butt;stroke-linejoin:miter;stroke-opacity:1"
       id="text4240">
      <path
         d="m 346.32128,268.184 -13.37757,0 0,2.2024 5.32927,0 0,16.53163 2.58307,0 0,-16.53163 5.19332,0 0.27191,-2.2024 z"
         style="font-style:normal;font-variant:normal;font-weight:normal;font-stretch:normal;font-size:27.1901741px;font-family:'Fira Sans';-inkscape-font-specification:'Fira Sans';fill:#ffffff;fill-opacity:1"
         id="path3427" />
    </g>
    <circle
       r="15.931925"
       cy="128.03247"
       cx="216.31186"
       id="circle4262"
       style="fill:#ff7171;fill-opacity:1;stroke:#000000;stroke-width:1;stroke-miterlimit:4;stroke-dasharray:none;stroke-dashoffset:0;stroke-opacity:1" />
    <g
       style="font-style:normal;font-weight:normal;font-size:18.82396698px;line-height:125%;font-family:sans-serif;letter-spacing:0px;word-spacing:0px;fill:#000000;fill-opacity:1;stroke:none;stroke-width:1px;stroke-linecap:butt;stroke-linejoin:miter;stroke-opacity:1"
       id="text4264">
      <path
         d="m 222.38458,119.16547 -2.40947,0 0,11.57046 c 0,2.68556 -1.17963,4.01578 -3.6644,4.01578 -2.45966,0 -3.6393,-1.33022 -3.6393,-4.01578 l 0,-11.57046 -2.38437,0 0,11.74615 c 0,3.43852 2.08319,5.84798 6.02367,5.84798 3.89029,0 6.07387,-2.40946 6.07387,-5.84798 l 0,-11.74615 z"
         style="font-style:normal;font-variant:normal;font-weight:normal;font-stretch:normal;font-size:25.09862328px;font-family:'Fira Sans';-inkscape-font-specification:'Fira Sans';fill:#000000;fill-opacity:1"
         id="path3475" />
    </g>
    <circle
       style="fill:#ff7171;fill-opacity:1;stroke:#000000;stroke-width:1;stroke-miterlimit:4;stroke-dasharray:none;stroke-dashoffset:0;stroke-opacity:1"
       id="circle4270"
       cx="463.61502"
       cy="128.03247"
       r="15.931925" />
    <g
       style="font-style:normal;font-weight:normal;font-size:18.82396698px;line-height:125%;font-family:sans-serif;letter-spacing:0px;word-spacing:0px;fill:#000000;fill-opacity:1;stroke:none;stroke-width:0.59764236;stroke-linecap:butt;stroke-linejoin:miter;stroke-miterlimit:4;stroke-dasharray:none;stroke-opacity:1"
       id="text4272">
      <path
         d="m 469.68774,119.16547 -2.40947,0 0,11.57046 c 0,2.68556 -1.17963,4.01578 -3.66439,4.01578 -2.45967,0 -3.63931,-1.33022 -3.63931,-4.01578 l 0,-11.57046 -2.38436,0 0,11.74615 c 0,3.43852 2.08318,5.84798 6.02367,5.84798 3.89028,0 6.07386,-2.40946 6.07386,-5.84798 l 0,-11.74615 z"
         style="font-style:normal;font-variant:normal;font-weight:normal;font-stretch:normal;font-size:25.09862328px;font-family:'Fira Sans';-inkscape-font-specification:'Fira Sans';fill:#000000;fill-opacity:1;stroke-width:0.59764236;stroke-miterlimit:4;stroke-dasharray:none"
         id="path3478" />
    </g>
    <circle
       r="15.931925"
       cy="426.83127"
       cx="463.61502"
       id="circle4278"
       style="fill:#ff7171;fill-opacity:1;stroke:#000000;stroke-width:1;stroke-miterlimit:4;stroke-dasharray:none;stroke-dashoffset:0;stroke-opacity:1" />
    <g
       style="font-style:normal;font-weight:normal;font-size:18.82396698px;line-height:125%;font-family:sans-serif;letter-spacing:0px;word-spacing:0px;fill:#000000;fill-opacity:1;stroke:none;stroke-width:1px;stroke-linecap:butt;stroke-linejoin:miter;stroke-opacity:1"
       id="text4280">
      <path
         d="m 469.68774,417.96425 -2.40947,0 0,11.57047 c 0,2.68555 -1.17963,4.01578 -3.66439,4.01578 -2.45967,0 -3.63931,-1.33023 -3.63931,-4.01578 l 0,-11.57047 -2.38436,0 0,11.74616 c 0,3.43851 2.08318,5.84798 6.02367,5.84798 3.89028,0 6.07386,-2.40947 6.07386,-5.84798 l 0,-11.74616 z"
         style="font-style:normal;font-variant:normal;font-weight:normal;font-stretch:normal;font-size:25.09862328px;font-family:'Fira Sans';-inkscape-font-specification:'Fira Sans';fill:#000000;fill-opacity:1"
         id="path3490" />
    </g>
    <circle
       style="fill:#ff7171;fill-opacity:1;stroke:#000000;stroke-width:1;stroke-miterlimit:4;stroke-dasharray:none;stroke-dashoffset:0;stroke-opacity:1"
       id="circle4286"
       cx="216.31186"
       cy="277.06342"
       r="15.931925" />
    <g
       style="font-style:normal;font-weight:normal;font-size:18.82396698px;line-height:125%;font-family:sans-serif;letter-spacing:0px;word-spacing:0px;fill:#000000;fill-opacity:1;stroke:none;stroke-width:1px;stroke-linecap:butt;stroke-linejoin:miter;stroke-opacity:1"
       id="text4288">
      <path
         d="m 222.38458,268.19643 -2.40947,0 0,11.57046 c 0,2.68556 -1.17963,4.01578 -3.6644,4.01578 -2.45966,0 -3.6393,-1.33022 -3.6393,-4.01578 l 0,-11.57046 -2.38437,0 0,11.74615 c 0,3.43852 2.08319,5.84798 6.02367,5.84798 3.89029,0 6.07387,-2.40946 6.07387,-5.84798 l 0,-11.74615 z"
         style="font-style:normal;font-variant:normal;font-weight:normal;font-stretch:normal;font-size:25.09862328px;font-family:'Fira Sans';-inkscape-font-specification:'Fira Sans';fill:#000000;fill-opacity:1"
         id="path3496" />
    </g>
    <circle
       style="fill:#b7f1f1;fill-opacity:1;stroke:#000000;stroke-width:1;stroke-miterlimit:4;stroke-dasharray:none;stroke-dashoffset:0;stroke-opacity:1"
       id="circle4299"
       cx="589.8316"
       cy="351.04568"
       r="15.931925" />
    <g
       style="font-style:normal;font-weight:normal;font-size:18.82396698px;line-height:125%;font-family:sans-serif;letter-spacing:0px;word-spacing:0px;fill:#000000;fill-opacity:1;stroke:none;stroke-width:1px;stroke-linecap:butt;stroke-linejoin:miter;stroke-opacity:1"
       id="text4301">
      <path
         d="m 596.54381,342.6714 -2.40947,0 -4.34206,14.7078 -4.34207,-14.7078 -2.56006,0 5.5719,17.29296 2.56006,0 5.5217,-17.29296 z"
         style="font-style:normal;font-variant:normal;font-weight:normal;font-stretch:normal;font-size:25.09862328px;font-family:'Fira Sans';-inkscape-font-specification:'Fira Sans'"
         id="path3421" />
    </g>
    <circle
       r="15.931925"
       cy="351.04568"
       cx="91.295113"
       id="circle4307"
       style="fill:#b7f1f1;fill-opacity:1;stroke:#000000;stroke-width:1;stroke-miterlimit:4;stroke-dasharray:none;stroke-dashoffset:0;stroke-opacity:1" />
    <g
       style="font-style:normal;font-weight:normal;font-size:18.82396698px;line-height:125%;font-family:sans-serif;letter-spacing:0px;word-spacing:0px;fill:#000000;fill-opacity:1;stroke:none;stroke-width:1px;stroke-linecap:butt;stroke-linejoin:miter;stroke-opacity:1"
       id="text4309">
      <path
         d="m 98.00733,342.6714 -2.409468,0 -4.342062,14.7078 -4.342062,-14.7078 -2.560059,0 5.571894,17.29296 2.56006,0 5.521697,-17.29296 z"
         style="font-style:normal;font-variant:normal;font-weight:normal;font-stretch:normal;font-size:25.09862328px;font-family:'Fira Sans';-inkscape-font-specification:'Fira Sans'"
         id="path3436" />
    </g>
    <circle
       style="fill:#b7f1f1;fill-opacity:1;stroke:#000000;stroke-width:1;stroke-miterlimit:4;stroke-dasharray:none;stroke-dashoffset:0;stroke-opacity:1"
       id="circle4315"
       cx="91.295113"
       cy="202.59312"
       r="15.931925" />
    <g
       style="font-style:normal;font-weight:normal;font-size:18.82396698px;line-height:125%;font-family:sans-serif;letter-spacing:0px;word-spacing:0px;fill:#000000;fill-opacity:1;stroke:none;stroke-width:1px;stroke-linecap:butt;stroke-linejoin:miter;stroke-opacity:1"
       id="text4317">
      <path
         d="m 98.00733,194.21884 -2.409468,0 -4.342062,14.7078 -4.342062,-14.7078 -2.560059,0 5.571894,17.29296 2.56006,0 5.521697,-17.29296 z"
         style="font-style:normal;font-variant:normal;font-weight:normal;font-stretch:normal;font-size:25.09862328px;font-family:'Fira Sans';-inkscape-font-specification:'Fira Sans'"
         id="path3412" />
    </g>
    <circle
       r="15.931925"
       cy="202.59312"
       cx="589.8316"
       id="circle4323"
       style="fill:#b7f1f1;fill-opacity:1;stroke:#000000;stroke-width:1;stroke-miterlimit:4;stroke-dasharray:none;stroke-dashoffset:0;stroke-opacity:1" />
    <g
       style="font-style:normal;font-weight:normal;font-size:18.82396698px;line-height:125%;font-family:sans-serif;letter-spacing:0px;word-spacing:0px;fill:#000000;fill-opacity:1;stroke:none;stroke-width:1px;stroke-linecap:butt;stroke-linejoin:miter;stroke-opacity:1"
       id="text4325">
      <path
         d="m 596.54381,194.21884 -2.40947,0 -4.34206,14.7078 -4.34207,-14.7078 -2.56006,0 5.5719,17.29296 2.56006,0 5.5217,-17.29296 z"
         style="font-style:normal;font-variant:normal;font-weight:normal;font-stretch:normal;font-size:25.09862328px;font-family:'Fira Sans';-inkscape-font-specification:'Fira Sans'"
         id="path3415" />
    </g>
    <circle
       style="fill:#b7f1f1;fill-opacity:1;stroke:#000000;stroke-width:1;stroke-miterlimit:4;stroke-dasharray:none;stroke-dashoffset:0;stroke-opacity:1"
       id="circle4331"
       cx="339.58734"
       cy="351.04568"
       r="15.931925" />
    <g
       style="font-style:normal;font-weight:normal;font-size:18.82396698px;line-height:125%;font-family:sans-serif;letter-spacing:0px;word-spacing:0px;fill:#000000;fill-opacity:1;stroke:none;stroke-width:1px;stroke-linecap:butt;stroke-linejoin:miter;stroke-opacity:1"
       id="text4333">
      <path
         d="m 346.29957,342.6714 -2.40946,0 -4.34207,14.7078 -4.34206,-14.7078 -2.56006,0 5.5719,17.29296 2.56006,0 5.52169,-17.29296 z"
         style="font-style:normal;font-variant:normal;font-weight:normal;font-stretch:normal;font-size:25.09862328px;font-family:'Fira Sans';-inkscape-font-specification:'Fira Sans'"
         id="path3424" />
    </g>
    <circle
       r="15.931925"
       cy="202.59312"
       cx="216.31186"
       id="circle5862"
       style="fill:#ffffff;fill-opacity:1;stroke:#000000;stroke-width:1;stroke-miterlimit:4;stroke-dasharray:none;stroke-dashoffset:0;stroke-opacity:1" />
    <g
       style="font-style:normal;font-weight:normal;font-size:18.82396698px;line-height:125%;font-family:sans-serif;letter-spacing:0px;word-spacing:0px;fill:#000000;fill-opacity:1;stroke:none;stroke-width:0.59764236;stroke-linecap:butt;stroke-linejoin:miter;stroke-miterlimit:4;stroke-dasharray:none;stroke-opacity:1"
       id="text5864">
      <path
         d="m 220.49538,190.1731 -9.06061,0 -0.27608,1.85729 3.6393,0 c 1.63141,0 3.08713,-0.15059 3.76479,-0.32628 -4.46755,2.71065 -7.35389,7.2786 -7.35389,10.66692 0,3.18752 1.50591,4.59304 4.11617,5.59699 2.03299,0.77806 2.61026,1.12944 2.61026,2.13338 0,1.20474 -1.02905,1.8322 -2.45967,2.40947 l 0.97885,1.60631 c 2.71065,-1.17963 3.96558,-2.38437 3.96558,-4.26676 0,-1.9828 -1.53102,-2.73575 -3.5891,-3.51381 -2.20868,-0.82826 -3.16243,-1.58121 -3.16243,-3.96558 0,-3.06204 1.8824,-6.29976 7.12801,-10.66692 l -0.30118,-1.53101 z"
         style="font-style:normal;font-variant:normal;font-weight:normal;font-stretch:normal;font-size:25.09862328px;font-family:'Fira Sans';-inkscape-font-specification:'Fira Sans';fill:#000000;fill-opacity:1;stroke-width:0.59764236;stroke-miterlimit:4;stroke-dasharray:none"
         id="path3493" />
    </g>
    <circle
       style="fill:#ffffff;fill-opacity:1;stroke:#000000;stroke-width:1;stroke-miterlimit:4;stroke-dasharray:none;stroke-dashoffset:0;stroke-opacity:1"
       id="circle5878"
       cx="463.61502"
       cy="202.59312"
       r="15.931925" />
    <g
       style="font-style:normal;font-weight:normal;font-size:18.82396698px;line-height:125%;font-family:sans-serif;letter-spacing:0px;word-spacing:0px;fill:#000000;fill-opacity:1;stroke:none;stroke-width:0.59764236;stroke-linecap:butt;stroke-linejoin:miter;stroke-miterlimit:4;stroke-dasharray:none;stroke-opacity:1"
       id="text5880">
      <path
         d="m 467.79855,190.1731 -9.0606,0 -0.27608,1.85729 3.6393,0 c 1.63141,0 3.08713,-0.15059 3.76479,-0.32628 -4.46756,2.71065 -7.3539,7.2786 -7.3539,10.66692 0,3.18752 1.50592,4.59304 4.11618,5.59699 2.03299,0.77806 2.61025,1.12944 2.61025,2.13338 0,1.20474 -1.02904,1.8322 -2.45966,2.40947 l 0.97884,1.60631 c 2.71066,-1.17963 3.96559,-2.38437 3.96559,-4.26676 0,-1.9828 -1.53102,-2.73575 -3.58911,-3.51381 -2.20867,-0.82826 -3.16242,-1.58121 -3.16242,-3.96558 0,-3.06204 1.88239,-6.29976 7.12801,-10.66692 l -0.30119,-1.53101 z"
         style="font-style:normal;font-variant:normal;font-weight:normal;font-stretch:normal;font-size:25.09862328px;font-family:'Fira Sans';-inkscape-font-specification:'Fira Sans';fill:#000000;fill-opacity:1;stroke-width:0.59764236;stroke-miterlimit:4;stroke-dasharray:none"
         id="path3481" />
    </g>
    <circle
       r="15.931925"
       cy="351.04568"
       cx="463.61502"
       id="circle5886"
       style="fill:#ffffff;fill-opacity:1;stroke:#000000;stroke-width:1;stroke-miterlimit:4;stroke-dasharray:none;stroke-dashoffset:0;stroke-opacity:1" />
    <g
       style="font-style:normal;font-weight:normal;font-size:18.82396698px;line-height:125%;font-family:sans-serif;letter-spacing:0px;word-spacing:0px;fill:#000000;fill-opacity:1;stroke:none;stroke-width:0.59764236;stroke-linecap:butt;stroke-linejoin:miter;stroke-miterlimit:4;stroke-dasharray:none;stroke-opacity:1"
       id="text5888">
      <path
         d="m 467.79855,338.62564 -9.0606,0 -0.27608,1.8573 3.6393,0 c 1.63141,0 3.08713,-0.15059 3.76479,-0.32628 -4.46756,2.71065 -7.3539,7.2786 -7.3539,10.66691 0,3.18753 1.50592,4.59305 4.11618,5.59699 2.03299,0.77806 2.61025,1.12944 2.61025,2.13339 0,1.20473 -1.02904,1.8322 -2.45966,2.40947 l 0.97884,1.60631 c 2.71066,-1.17964 3.96559,-2.38437 3.96559,-4.26677 0,-1.98279 -1.53102,-2.73575 -3.58911,-3.51381 -2.20867,-0.82825 -3.16242,-1.58121 -3.16242,-3.96558 0,-3.06203 1.88239,-6.29975 7.12801,-10.66691 l -0.30119,-1.53102 z"
         style="font-style:normal;font-variant:normal;font-weight:normal;font-stretch:normal;font-size:25.09862328px;font-family:'Fira Sans';-inkscape-font-specification:'Fira Sans';fill:#000000;fill-opacity:1;stroke-width:0.59764236;stroke-miterlimit:4;stroke-dasharray:none"
         id="path3487" />
    </g>
    <circle
       style="fill:#ffffff;fill-opacity:1;stroke:#000000;stroke-width:1;stroke-miterlimit:4;stroke-dasharray:none;stroke-dashoffset:0;stroke-opacity:1"
       id="circle5894"
       cx="216.31186"
       cy="351.04568"
       r="15.931925" />
    <g
       style="font-style:normal;font-weight:normal;font-size:18.82396698px;line-height:125%;font-family:sans-serif;letter-spacing:0px;word-spacing:0px;fill:#000000;fill-opacity:1;stroke:none;stroke-width:0.59764236;stroke-linecap:butt;stroke-linejoin:miter;stroke-miterlimit:4;stroke-dasharray:none;stroke-opacity:1"
       id="text5896">
      <path
         d="m 220.49538,338.62564 -9.06061,0 -0.27608,1.8573 3.6393,0 c 1.63141,0 3.08713,-0.15059 3.76479,-0.32628 -4.46755,2.71065 -7.35389,7.2786 -7.35389,10.66691 0,3.18753 1.50591,4.59305 4.11617,5.59699 2.03299,0.77806 2.61026,1.12944 2.61026,2.13339 0,1.20473 -1.02905,1.8322 -2.45967,2.40947 l 0.97885,1.60631 c 2.71065,-1.17964 3.96558,-2.38437 3.96558,-4.26677 0,-1.98279 -1.53102,-2.73575 -3.5891,-3.51381 -2.20868,-0.82825 -3.16243,-1.58121 -3.16243,-3.96558 0,-3.06203 1.8824,-6.29975 7.12801,-10.66691 l -0.30118,-1.53102 z"
         style="font-style:normal;font-variant:normal;font-weight:normal;font-stretch:normal;font-size:25.09862328px;font-family:'Fira Sans';-inkscape-font-specification:'Fira Sans';fill:#000000;fill-opacity:1;stroke-width:0.59764236;stroke-miterlimit:4;stroke-dasharray:none"
         id="path3499" />
    </g>
  </g>
</svg>
